<?xml version="1.0" encoding="UTF-8" standalone="no"?>
<svg
   width="326mm"
   height="283mm"
   viewBox="0 0 326 283"
   version="1.1"
   preserveAspectRatio="xMidYMid meet"
   id="svg1"
   sodipodi:docname="box.svg"
   inkscape:version="1.4.2 (ebf0e940, 2025-05-08)"
   xmlns:inkscape="http://www.inkscape.org/namespaces/inkscape"
   xmlns:sodipodi="http://sodipodi.sourceforge.net/DTD/sodipodi-0.dtd"
   xmlns="http://www.w3.org/2000/svg"
   xmlns:svg="http://www.w3.org/2000/svg">
  <defs
     id="defs1" />
  <sodipodi:namedview
     id="namedview1"
     pagecolor="#ffffff"
     bordercolor="#000000"
     borderopacity="0.25"
     inkscape:showpageshadow="2"
     inkscape:pageopacity="0.0"
     inkscape:pagecheckerboard="0"
     inkscape:deskcolor="#d1d1d1"
     inkscape:document-units="mm"
     showguides="true"
     inkscape:zoom="0.30765026"
     inkscape:cx="550.95029"
     inkscape:cy="576.95384"
     inkscape:window-width="1144"
     inkscape:window-height="656"
     inkscape:window-x="0"
     inkscape:window-y="25"
     inkscape:window-maximized="0"
     inkscape:current-layer="svg1" />
  <g
     id="svgGroup"
     stroke-linecap="round"
     fill-rule="evenodd"
     font-size="12px"
     stroke="#000"
     stroke-width="0.25mm"
     fill="none"
     style="fill:none;stroke:#000000;stroke-width:0.25mm"
     transform="matrix(0.99713356,0,0,0.99875963,0.24746976,0.24469604)">
    <path
       d="m 0,143 v 17.5 h 3 v 21 H 0 v 21 h 3 v 21 H 0 v 21 h 3 v 21 H 0 V 283 h 28.5 v -3 h 21 v 3 h 21 v -3 h 21 v 3 h 21 7.5 v -17.5 h -3 v -21 h 3 v -21 h -3 v -21 h 3 v -21 h -3 v -21 h 3 V 143 H 91.5 v 3 h -21 v -3 h -21 v 3 h -21 v -3 h -21 z"
       id="front_outsideCutPath"
       stroke="#FF0000"
       stroke-width="0.1"
       style="stroke:#ff0000;stroke-width:0.20041159;stroke-dasharray:none"
       vector-effect="non-scaling-stroke" />
    <path
       d="m 77.49,222.064 h -1.945 v -8.308 q 0,-1.571 -0.715,-2.344 a 2.193,2.193 0 0 0 -0.899,-0.574 q -0.354,-0.125 -0.788,-0.172 a 5.157,5.157 0 0 0 -0.551,-0.028 5.888,5.888 0 0 0 -1.102,0.096 q -0.614,0.118 -1.086,0.377 a 2.743,2.743 0 0 0 -0.765,0.617 q -0.857,0.996 -0.931,3.175 a 12.463,12.463 0 0 0 -0.007,0.423 v 6.738 H 66.756 V 209.22 h 1.582 l 0.316,1.758 h 0.094 q 0.598,-0.949 1.676,-1.47 a 5.268,5.268 0 0 1 1.874,-0.5 6.37,6.37 0 0 1 0.528,-0.022 7.68,7.68 0 0 1 1.307,0.104 q 0.707,0.122 1.266,0.388 a 3.496,3.496 0 0 1 0.919,0.627 3.371,3.371 0 0 1 0.822,1.29 q 0.197,0.531 0.283,1.19 a 8.489,8.489 0 0 1 0.067,1.1 z M 40.119,209.22 v 1.512 H 36.85 v 11.332 h -1.946 v -11.332 h -2.297 v -0.879 l 2.297,-0.703 v -0.715 q 0,-4.087 3.083,-4.646 a 5.913,5.913 0 0 1 1.054,-0.088 q 0.793,0 1.798,0.248 a 12.593,12.593 0 0 1 0.593,0.162 l -0.504,1.559 a 9.446,9.446 0 0 0 -0.735,-0.207 q -0.371,-0.088 -0.698,-0.126 a 4.184,4.184 0 0 0 -0.489,-0.031 2.623,2.623 0 0 0 -0.633,0.072 1.685,1.685 0 0 0 -0.996,0.661 q -0.527,0.732 -0.527,2.349 v 0.832 z m 47.274,11.239 v 1.488 q -0.286,0.138 -0.816,0.232 a 7.276,7.276 0 0 1 -0.116,0.02 q -0.574,0.093 -1.042,0.099 a 4.987,4.987 0 0 1 -0.065,0.001 5.081,5.081 0 0 1 -1.498,-0.202 q -1.646,-0.508 -2.076,-2.296 a 6.115,6.115 0 0 1 -0.153,-1.428 v -7.641 h -1.84 v -0.937 l 1.84,-0.809 0.82,-2.742 h 1.125 v 2.976 h 3.727 v 1.512 h -3.727 v 7.559 q 0,0.815 0.272,1.364 a 1.887,1.887 0 0 0 0.279,0.417 1.807,1.807 0 0 0 1.111,0.591 2.6,2.6 0 0 0 0.401,0.03 6.389,6.389 0 0 0 0.936,-0.067 5.888,5.888 0 0 0 0.06,-0.009 q 0.458,-0.073 0.735,-0.151 a 2.926,2.926 0 0 0 0.027,-0.007 z m -37.536,-11.332 -0.269,1.804 q -0.664,-0.146 -1.198,-0.17 a 4.563,4.563 0 0 0 -0.208,-0.005 3.371,3.371 0 0 0 -2.491,1.075 4.611,4.611 0 0 0 -0.175,0.19 4.442,4.442 0 0 0 -1.072,2.495 5.905,5.905 0 0 0 -0.036,0.658 v 6.89 H 42.463 V 209.22 h 1.605 l 0.223,2.379 h 0.094 a 6.569,6.569 0 0 1 0.734,-1.049 5.018,5.018 0 0 1 0.988,-0.884 3.878,3.878 0 0 1 2.215,-0.68 8.931,8.931 0 0 1 0.8,0.034 6.518,6.518 0 0 1 0.735,0.107 z m 11.907,11.408 a 5.427,5.427 0 0 0 0.646,-0.888 q 0.936,-1.601 0.936,-4.016 0,-3.059 -1.588,-4.852 -1.588,-1.793 -4.283,-1.793 a 7.555,7.555 0 0 0 -1.357,0.117 5.145,5.145 0 0 0 -3.003,1.635 q -1.043,1.163 -1.393,2.939 a 10.101,10.101 0 0 0 -0.177,1.954 9.732,9.732 0 0 0 0.122,1.576 7.196,7.196 0 0 0 0.604,1.963 6.394,6.394 0 0 0 0.142,0.277 5.266,5.266 0 0 0 1.921,2.043 5.417,5.417 0 0 0 1.243,0.553 6.247,6.247 0 0 0 1.816,0.256 7.554,7.554 0 0 0 1.319,-0.111 5.186,5.186 0 0 0 3.052,-1.653 z m -8.203,-4.904 a 9.851,9.851 0 0 0 0.093,1.407 q 0.104,0.714 0.321,1.293 a 4.081,4.081 0 0 0 0.57,1.05 3.188,3.188 0 0 0 2.076,1.222 4.831,4.831 0 0 0 0.818,0.067 4.518,4.518 0 0 0 1.193,-0.149 3.145,3.145 0 0 0 1.708,-1.135 q 0.736,-0.954 0.925,-2.566 a 10.247,10.247 0 0 0 0.065,-1.189 9.706,9.706 0 0 0 -0.092,-1.384 q -0.101,-0.704 -0.315,-1.274 a 4.005,4.005 0 0 0 -0.583,-1.063 3.2,3.2 0 0 0 -1.99,-1.187 4.906,4.906 0 0 0 -0.934,-0.085 4.63,4.63 0 0 0 -1.153,0.135 3.098,3.098 0 0 0 -1.73,1.119 q -0.7,0.903 -0.896,2.443 a 10.28,10.28 0 0 0 -0.076,1.296 z"
       id="front_labelLayer"
       stroke="#777777"
       fill="#777777"
       style="fill:#777777;stroke:#777777"
       vector-effect="non-scaling-stroke" />
    <path
       d="m 126,143 v 17.5 h -3 v 21 h 3 v 21 h -3 v 21 h 3 v 21 h -3 v 21 h 3 V 283 h 26.5 v -3 h 21 v 3 h 21 5.5 v -17.5 h 3 v -21 h -3 v -21 h 3 v -21 h -3 v -21 h 3 v -21 h -3 V 143 h -26.5 v 3 h -21 v -3 h -21 z"
       id="left_outsideCutPath"
       stroke="#FF0000"
       stroke-width="0.1"
       style="stroke:#ff0000;stroke-width:0.20041159;stroke-dasharray:none"
       vector-effect="non-scaling-stroke" />
    <path
       d="m 168.691,210.48 v 1.008 h -2.179 v 7.555 h -1.297 v -7.555 h -1.531 v -0.586 l 1.531,-0.469 v -0.476 a 5.256,5.256 0 0 1 0.123,-1.191 q 0.379,-1.625 1.932,-1.906 a 3.942,3.942 0 0 1 0.703,-0.059 4.176,4.176 0 0 1 0.591,0.045 q 0.46,0.066 1.002,0.228 l -0.336,1.039 q -0.532,-0.172 -0.955,-0.222 a 2.789,2.789 0 0 0 -0.326,-0.02 1.749,1.749 0 0 0 -0.421,0.048 1.123,1.123 0 0 0 -0.665,0.44 1.501,1.501 0 0 0 -0.198,0.4 q -0.153,0.455 -0.153,1.167 v 0.554 z m -6.07,3.696 v 0.82 h -5.898 a 5.205,5.205 0 0 0 0.091,0.871 q 0.093,0.475 0.281,0.85 a 2.435,2.435 0 0 0 0.389,0.568 2.357,2.357 0 0 0 1.238,0.697 3.571,3.571 0 0 0 0.798,0.084 6.85,6.85 0 0 0 2.565,-0.508 7.848,7.848 0 0 0 0.169,-0.07 v 1.156 a 7.786,7.786 0 0 1 -0.71,0.268 5.954,5.954 0 0 1 -0.591,0.158 q -0.613,0.129 -1.48,0.129 a 5.04,5.04 0 0 1 -1.261,-0.149 3.568,3.568 0 0 1 -1.735,-1.007 q -1.035,-1.09 -1.094,-2.977 a 7.408,7.408 0 0 1 -0.004,-0.234 q 0,-2.07 1.019,-3.289 a 3.323,3.323 0 0 1 2.423,-1.208 4.585,4.585 0 0 1 0.316,-0.011 3.951,3.951 0 0 1 1.112,0.149 3.006,3.006 0 0 1 1.435,0.91 q 0.937,1.058 0.937,2.793 z m 11.57,3.796 v 0.993 a 1.276,1.276 0 0 1 -0.151,0.06 q -0.188,0.062 -0.47,0.108 a 5.621,5.621 0 0 1 -0.366,0.047 q -0.173,0.017 -0.328,0.019 a 3.325,3.325 0 0 1 -0.044,0 3.387,3.387 0 0 1 -0.998,-0.134 q -1.097,-0.339 -1.385,-1.531 a 4.076,4.076 0 0 1 -0.101,-0.952 v -5.094 h -1.227 v -0.625 l 1.227,-0.539 0.547,-1.828 h 0.75 v 1.984 h 2.484 v 1.008 h -2.484 v 5.039 a 2.611,2.611 0 0 0 0.037,0.459 q 0.08,0.447 0.33,0.729 0.367,0.414 1.008,0.414 a 4.259,4.259 0 0 0 0.623,-0.045 3.925,3.925 0 0 0 0.041,-0.006 q 0.305,-0.049 0.49,-0.101 a 1.951,1.951 0 0 0 0.017,-0.005 z m -21.086,-11.085 v 12.156 h -1.296 v -12.156 z m 3.649,7.054 h 4.476 q 0,-1.226 -0.546,-1.879 a 1.777,1.777 0 0 0 -1.07,-0.609 2.665,2.665 0 0 0 -0.493,-0.043 2.556,2.556 0 0 0 -0.738,0.101 1.975,1.975 0 0 0 -0.906,0.571 q -0.614,0.672 -0.723,1.859 z"
       id="left_labelLayer"
       stroke="#777777"
       fill="#777777"
       style="fill:#777777;stroke:#777777"
       vector-effect="non-scaling-stroke" />
    <path
       d="m 209,206 v 26.5 h -3 v 21 h 3 v 21 5.5 h 25.5 v 3 h 21 v -3 h 21 v 3 h 21 v -3 h 21 4.5 v -26.5 h 3 v -21 h -3 v -21 -5.5 h -25.5 v -3 h -21 v 3 h -21 v -3 h -21 v 3 h -21 z"
       id="top_outsideCutPath"
       stroke="#FF0000"
       stroke-width="0.1"
       style="stroke:#ff0000;stroke-width:0.20041159;stroke-dasharray:none"
       vector-effect="non-scaling-stroke" />
    <path
       d="m 271.75,245.25 h -0.094 a 12.273,12.273 0 0 1 0.081,0.907 10.284,10.284 0 0 1 0.013,0.515 v 3.523 h -1.297 v -12.406 h 1.055 l 0.179,1.172 h 0.063 a 3.491,3.491 0 0 1 0.505,-0.573 2.699,2.699 0 0 1 0.659,-0.443 3.248,3.248 0 0 1 0.931,-0.272 4.204,4.204 0 0 1 0.592,-0.04 3.975,3.975 0 0 1 1.123,0.15 2.938,2.938 0 0 1 1.506,1.014 3.894,3.894 0 0 1 0.665,1.297 q 0.171,0.559 0.23,1.232 a 8.445,8.445 0 0 1 0.031,0.736 q 0,1.489 -0.469,2.509 a 3.645,3.645 0 0 1 -0.472,0.769 3.07,3.07 0 0 1 -2.182,1.147 4.399,4.399 0 0 1 -0.432,0.021 3.934,3.934 0 0 1 -0.988,-0.121 3.423,3.423 0 0 1 -0.539,-0.188 2.872,2.872 0 0 1 -1.16,-0.949 z m -12.672,0.031 v 0.992 a 1.276,1.276 0 0 1 -0.151,0.06 q -0.188,0.063 -0.47,0.108 a 5.621,5.621 0 0 1 -0.367,0.048 q -0.172,0.016 -0.327,0.019 a 3.325,3.325 0 0 1 -0.044,0 3.387,3.387 0 0 1 -0.999,-0.135 q -1.097,-0.338 -1.384,-1.53 a 4.076,4.076 0 0 1 -0.102,-0.952 v -5.094 h -1.226 v -0.625 l 1.226,-0.539 0.547,-1.828 h 0.75 v 1.984 h 2.485 v 1.008 h -2.485 v 5.039 a 2.611,2.611 0 0 0 0.038,0.459 q 0.08,0.447 0.329,0.728 0.368,0.415 1.008,0.415 a 4.259,4.259 0 0 0 0.624,-0.045 3.925,3.925 0 0 0 0.04,-0.006 q 0.306,-0.049 0.491,-0.101 a 1.951,1.951 0 0 0 0.017,-0.005 z m 8.983,-1.915 a 6.699,6.699 0 0 0 0.119,-1.304 q 0,-0.832 -0.177,-1.524 a 4.038,4.038 0 0 0 -0.882,-1.71 3.395,3.395 0 0 0 -1.576,-1.016 4.358,4.358 0 0 0 -1.279,-0.179 5.037,5.037 0 0 0 -0.905,0.077 3.43,3.43 0 0 0 -2.002,1.091 q -1.047,1.168 -1.047,3.262 a 6.488,6.488 0 0 0 0.082,1.05 4.798,4.798 0 0 0 0.403,1.309 4.263,4.263 0 0 0 0.094,0.185 3.511,3.511 0 0 0 1.281,1.362 q 0.89,0.539 2.039,0.539 a 5.036,5.036 0 0 0 0.879,-0.074 3.457,3.457 0 0 0 2.035,-1.102 3.618,3.618 0 0 0 0.431,-0.592 q 0.351,-0.601 0.505,-1.374 z m -6.405,-1.303 a 6.567,6.567 0 0 0 0.063,0.938 q 0.14,0.967 0.593,1.562 0.657,0.859 1.93,0.859 a 3.012,3.012 0 0 0 0.795,-0.099 2.096,2.096 0 0 0 1.139,-0.757 q 0.66,-0.855 0.66,-2.503 a 6.471,6.471 0 0 0 -0.061,-0.923 q -0.068,-0.469 -0.211,-0.849 a 2.67,2.67 0 0 0 -0.388,-0.709 2.133,2.133 0 0 0 -1.327,-0.791 3.271,3.271 0 0 0 -0.623,-0.057 3.086,3.086 0 0 0 -0.768,0.09 2.066,2.066 0 0 0 -1.153,0.746 2.681,2.681 0 0 0 -0.417,0.806 q -0.123,0.37 -0.181,0.823 a 6.853,6.853 0 0 0 -0.051,0.863 z m 10.094,-0.29 v 0.29 q 0,1.532 0.434,2.324 a 1.956,1.956 0 0 0 0.167,0.258 q 0.602,0.777 1.93,0.777 1.11,0 1.738,-0.899 a 3.136,3.136 0 0 0 0.43,-0.916 q 0.199,-0.672 0.199,-1.56 a 6.544,6.544 0 0 0 -0.061,-0.928 q -0.068,-0.471 -0.209,-0.853 a 2.749,2.749 0 0 0 -0.359,-0.676 2.017,2.017 0 0 0 -1.475,-0.841 2.79,2.79 0 0 0 -0.294,-0.015 3.737,3.737 0 0 0 -0.698,0.061 q -0.784,0.149 -1.201,0.666 a 2.222,2.222 0 0 0 -0.347,0.633 q -0.244,0.663 -0.254,1.679 z"
       id="top_labelLayer"
       stroke="#777777"
       fill="#777777"
       style="fill:#777777;stroke:#777777"
       vector-effect="non-scaling-stroke" />
    <path
       d="m 0,0 v 17.5 h 3 v 21 H 0 v 21 h 3 v 21 H 0 v 21 h 3 v 21 H 0 V 140 h 28.5 v -3 h 21 v 3 h 21 v -3 h 21 v 3 h 21 7.5 v -17.5 h -3 v -21 h 3 v -21 h -3 v -21 h 3 v -21 h -3 v -21 h 3 V 0 H 91.5 v 3 h -21 V 0 h -21 v 3 h -21 V 0 h -21 z"
       id="back_outsideCutPath"
       stroke="#FF0000"
       stroke-width="0.1"
       style="stroke:#ff0000;stroke-width:0.20041159;stroke-dasharray:none"
       vector-effect="non-scaling-stroke" />
    <path
       d="m 76.43,72.426 h 0.093 a 11.516,11.516 0 0 1 0.285,-0.386 q 0.328,-0.426 0.796,-0.97 a 41.799,41.799 0 0 1 0.455,-0.519 l 4.148,-4.395 h 2.309 L 79.313,71.629 84.879,79 h -2.356 l -4.535,-6.07 -1.465,1.265 V 79 H 74.602 V 60.765 h 1.921 v 9.668 q 0,0.633 -0.09,1.944 a 80.539,80.539 0 0 1 -0.003,0.049 z m -39.364,4.922 h -0.14 L 36.516,79 H 35.121 V 60.765 h 1.945 v 4.43 a 40.558,40.558 0 0 1 -0.022,1.37 q -0.022,0.649 -0.065,1.225 a 24.315,24.315 0 0 1 -0.006,0.077 h 0.093 a 4.423,4.423 0 0 1 3.229,-1.875 6.644,6.644 0 0 1 0.803,-0.047 5.946,5.946 0 0 1 1.673,0.223 4.451,4.451 0 0 1 2.258,1.506 q 1.122,1.384 1.345,3.689 a 12.486,12.486 0 0 1 0.056,1.203 11.406,11.406 0 0 1 -0.151,1.919 q -0.311,1.818 -1.261,2.997 a 4.605,4.605 0 0 1 -3.274,1.721 6.598,6.598 0 0 1 -0.646,0.031 5.901,5.901 0 0 1 -1.483,-0.181 5.134,5.134 0 0 1 -0.808,-0.282 4.309,4.309 0 0 1 -1.741,-1.423 z M 59.168,79 H 57.727 L 57.34,77.172 h -0.094 q -0.678,0.852 -1.354,1.316 a 3.584,3.584 0 0 1 -0.562,0.319 4.486,4.486 0 0 1 -0.926,0.292 q -0.654,0.135 -1.459,0.135 -1.91,0 -2.994,-0.984 a 3.197,3.197 0 0 1 -0.964,-1.686 4.895,4.895 0 0 1 -0.12,-1.115 q 0,-3.765 5.827,-4.062 a 19.003,19.003 0 0 1 0.396,-0.016 l 2.18,-0.07 v -0.797 q 0,-0.924 -0.243,-1.553 A 2.171,2.171 0 0 0 56.619,68.271 1.975,1.975 0 0 0 55.81,67.744 Q 55.487,67.626 55.085,67.58 a 4.806,4.806 0 0 0 -0.546,-0.029 6.334,6.334 0 0 0 -1.458,0.181 q -1.019,0.242 -2.175,0.803 l -0.597,-1.488 a 8.969,8.969 0 0 1 1.731,-0.712 10.209,10.209 0 0 1 0.349,-0.097 9.009,9.009 0 0 1 2.267,-0.293 8.216,8.216 0 0 1 1.252,0.089 q 0.643,0.099 1.156,0.31 a 3.311,3.311 0 0 1 0.997,0.621 3.08,3.08 0 0 1 0.794,1.226 q 0.186,0.503 0.261,1.129 a 7.654,7.654 0 0 1 0.052,0.914 z M 71.742,66.59 71.145,68.242 Q 70.5,67.984 69.738,67.814 69.087,67.669 68.564,67.648 a 4.312,4.312 0 0 0 -0.173,-0.004 4.315,4.315 0 0 0 -1.753,0.33 q -1.836,0.809 -2.113,3.609 a 10.749,10.749 0 0 0 -0.048,1.054 9.421,9.421 0 0 0 0.093,1.372 q 0.102,0.695 0.318,1.26 a 4.035,4.035 0 0 0 0.544,1 3.09,3.09 0 0 0 2.001,1.197 4.706,4.706 0 0 0 0.829,0.069 8.143,8.143 0 0 0 2.246,-0.327 10.054,10.054 0 0 0 1.047,-0.364 v 1.722 a 5.533,5.533 0 0 1 -1.354,0.479 q -0.626,0.139 -1.353,0.176 A 10.668,10.668 0 0 1 68.309,79.234 7.27,7.27 0 0 1 66.54,79.031 4.93,4.93 0 0 1 63.99,77.517 5.627,5.627 0 0 1 62.82,75.368 Q 62.461,74.181 62.461,72.66 a 10.733,10.733 0 0 1 0.166,-1.952 q 0.342,-1.846 1.387,-3.028 a 5.037,5.037 0 0 1 2.758,-1.587 7.636,7.636 0 0 1 1.666,-0.171 8.779,8.779 0 0 1 1.851,0.199 q 0.926,0.199 1.453,0.469 z m -33.045,1.467 a 2.587,2.587 0 0 0 -0.752,0.66 q -0.879,1.142 -0.879,3.849 a 12.862,12.862 0 0 0 0.064,1.33 q 0.14,1.341 0.587,2.157 a 2.934,2.934 0 0 0 0.252,0.386 2.822,2.822 0 0 0 1.431,0.966 q 0.638,0.2 1.463,0.2 a 3.878,3.878 0 0 0 1.102,-0.147 2.798,2.798 0 0 0 1.57,-1.159 4.466,4.466 0 0 0 0.553,-1.195 q 0.173,-0.568 0.254,-1.255 a 11.147,11.147 0 0 0 0.072,-1.306 11.493,11.493 0 0 0 -0.069,-1.31 q -0.178,-1.544 -0.81,-2.428 a 2.837,2.837 0 0 0 -1.806,-1.143 4.499,4.499 0 0 0 -0.913,-0.088 q -1.295,0 -2.119,0.483 z m 18.526,5.787 v -1.161 l -1.946,0.082 q -1.937,0.069 -2.972,0.526 a 2.988,2.988 0 0 0 -0.373,0.195 2.076,2.076 0 0 0 -0.99,1.506 3.073,3.073 0 0 0 -0.036,0.481 2.78,2.78 0 0 0 0.069,0.637 q 0.116,0.491 0.425,0.828 a 1.733,1.733 0 0 0 0.145,0.14 q 0.639,0.551 1.787,0.551 a 5.356,5.356 0 0 0 1.157,-0.118 q 0.806,-0.178 1.4,-0.626 a 3.248,3.248 0 0 0 0.297,-0.252 q 1.031,-0.991 1.037,-2.77 a 6.195,6.195 0 0 0 0,-0.019 z"
       id="back_labelLayer"
       stroke="#777777"
       fill="#777777"
       style="fill:#777777;stroke:#777777"
       vector-effect="non-scaling-stroke" />
    <path
       d="m 126,0 v 17.5 h -3 v 21 h 3 v 21 h -3 v 21 h 3 v 21 h -3 v 21 h 3 V 140 h 26.5 v -3 h 21 v 3 h 21 5.5 v -17.5 h 3 v -21 h -3 v -21 h 3 v -21 h -3 v -21 h 3 v -21 h -3 V 0 h -26.5 v 3 h -21 V 0 h -21 z"
       id="right_outsideCutPath"
       stroke="#FF0000"
       stroke-width="0.1"
       style="stroke:#ff0000;stroke-width:0.20041159;stroke-dasharray:none"
       vector-effect="non-scaling-stroke" />
    <path
       d="m 172.949,74.156 h -1.297 v -5.539 a 3.666,3.666 0 0 0 -0.042,-0.575 q -0.048,-0.302 -0.151,-0.544 a 1.543,1.543 0 0 0 -0.283,-0.443 1.462,1.462 0 0 0 -0.6,-0.383 q -0.235,-0.083 -0.525,-0.114 a 3.438,3.438 0 0 0 -0.367,-0.019 3.925,3.925 0 0 0 -0.734,0.064 q -0.407,0.077 -0.72,0.249 a 1.816,1.816 0 0 0 -0.519,0.421 2.158,2.158 0 0 0 -0.366,0.649 q -0.221,0.595 -0.251,1.478 a 8.37,8.37 0 0 0 -0.004,0.28 v 4.476 h -1.297 V 62 h 1.297 v 3.68 a 11.666,11.666 0 0 1 -0.008,0.448 q -0.015,0.373 -0.055,0.653 h 0.078 a 2.591,2.591 0 0 1 0.908,-0.873 3.165,3.165 0 0 1 0.182,-0.099 3.329,3.329 0 0 1 1.093,-0.325 4.209,4.209 0 0 1 0.521,-0.031 q 1.57,0 2.355,0.746 0.61,0.58 0.746,1.69 a 5.608,5.608 0 0 1 0.039,0.681 z m -11.875,-8.562 h 2.961 v 0.82 l -1.586,0.188 a 2.108,2.108 0 0 1 0.183,0.271 q 0.08,0.14 0.152,0.308 a 3.998,3.998 0 0 1 0.056,0.135 2.495,2.495 0 0 1 0.148,0.596 3.204,3.204 0 0 1 0.024,0.4 2.973,2.973 0 0 1 -0.137,0.922 2.405,2.405 0 0 1 -0.723,1.086 q -0.774,0.676 -2.068,0.743 a 5.633,5.633 0 0 1 -0.291,0.007 4.168,4.168 0 0 1 -0.482,-0.027 3.52,3.52 0 0 1 -0.237,-0.035 2.308,2.308 0 0 0 -0.372,0.24 q -0.192,0.156 -0.303,0.333 a 0.976,0.976 0 0 0 -0.153,0.528 q 0,0.352 0.289,0.52 a 0.91,0.91 0 0 0 0.202,0.083 q 0.211,0.062 0.533,0.078 a 4.933,4.933 0 0 0 0.257,0.007 h 1.516 a 5.309,5.309 0 0 1 0.806,0.057 q 0.422,0.065 0.762,0.203 a 2.344,2.344 0 0 1 0.569,0.326 1.897,1.897 0 0 1 0.705,1.208 2.85,2.85 0 0 1 0.041,0.495 2.808,2.808 0 0 1 -0.161,0.971 q -0.267,0.731 -0.98,1.197 a 3.889,3.889 0 0 1 -1.003,0.455 q -0.494,0.15 -1.096,0.223 A 10.279,10.279 0 0 1 159.457,78 q -1.68,0 -2.59,-0.625 -0.851,-0.585 -0.906,-1.62 a 2.739,2.739 0 0 1 -0.004,-0.146 q 0,-0.781 0.5,-1.351 a 2.265,2.265 0 0 1 0.778,-0.567 3.21,3.21 0 0 1 0.628,-0.207 1.346,1.346 0 0 1 -0.522,-0.422 1.598,1.598 0 0 1 -0.029,-0.039 1.202,1.202 0 0 1 -0.22,-0.649 1.489,1.489 0 0 1 -0.002,-0.077 1.483,1.483 0 0 1 0.075,-0.478 1.314,1.314 0 0 1 0.175,-0.342 1.856,1.856 0 0 1 0.245,-0.277 q 0.13,-0.122 0.298,-0.241 a 4.074,4.074 0 0 1 0.246,-0.162 2.274,2.274 0 0 1 -0.988,-0.791 2.818,2.818 0 0 1 -0.094,-0.139 2.681,2.681 0 0 1 -0.412,-1.292 3.272,3.272 0 0 1 -0.006,-0.208 q 0,-1.406 0.844,-2.168 a 2.754,2.754 0 0 1 1.057,-0.583 q 0.42,-0.128 0.925,-0.164 a 5.728,5.728 0 0 1 0.408,-0.015 4.971,4.971 0 0 1 0.658,0.042 3.786,3.786 0 0 1 0.553,0.115 z m 18.477,7.492 v 0.992 a 1.276,1.276 0 0 1 -0.152,0.06 q -0.187,0.062 -0.469,0.108 a 5.621,5.621 0 0 1 -0.367,0.048 q -0.173,0.016 -0.328,0.018 a 3.325,3.325 0 0 1 -0.044,0 3.387,3.387 0 0 1 -0.998,-0.134 q -1.097,-0.338 -1.384,-1.53 a 4.076,4.076 0 0 1 -0.102,-0.953 v -5.093 h -1.227 v -0.625 l 1.227,-0.54 0.547,-1.828 h 0.75 v 1.985 h 2.484 v 1.008 h -2.484 v 5.039 a 2.611,2.611 0 0 0 0.038,0.458 q 0.08,0.448 0.329,0.729 0.367,0.414 1.008,0.414 a 4.259,4.259 0 0 0 0.624,-0.044 3.925,3.925 0 0 0 0.04,-0.007 q 0.306,-0.048 0.49,-0.1 a 1.951,1.951 0 0 0 0.018,-0.005 z m -28.172,-7.555 -0.18,1.203 a 5.716,5.716 0 0 0 -0.411,-0.076 q -0.205,-0.029 -0.387,-0.038 a 3.042,3.042 0 0 0 -0.139,-0.003 2.247,2.247 0 0 0 -1.66,0.717 3.074,3.074 0 0 0 -0.118,0.127 2.962,2.962 0 0 0 -0.714,1.663 3.936,3.936 0 0 0 -0.024,0.438 v 4.594 h -1.297 v -8.562 h 1.071 l 0.148,1.586 h 0.062 a 4.38,4.38 0 0 1 0.49,-0.7 3.345,3.345 0 0 1 0.659,-0.589 2.585,2.585 0 0 1 1.476,-0.454 5.954,5.954 0 0 1 0.533,0.023 4.345,4.345 0 0 1 0.491,0.071 z m 2.898,0.063 v 8.562 h -1.297 v -8.562 z m 6.352,8.367 h -1.555 q -0.883,0 -1.375,0.422 a 1.367,1.367 0 0 0 -0.449,0.775 2.075,2.075 0 0 0 -0.043,0.436 1.302,1.302 0 0 0 0.086,0.483 q 0.123,0.311 0.424,0.521 a 1.522,1.522 0 0 0 0.076,0.05 q 0.586,0.36 1.68,0.36 1.632,0 2.418,-0.489 a 1.892,1.892 0 0 0 0.439,-0.367 1.418,1.418 0 0 0 0.346,-0.957 1.755,1.755 0 0 0 -0.032,-0.348 q -0.041,-0.201 -0.133,-0.35 a 0.817,0.817 0 0 0 -0.265,-0.267 q -0.327,-0.205 -1.094,-0.254 a 8.252,8.252 0 0 0 -0.523,-0.015 z m -2.719,-5.625 a 2.531,2.531 0 0 0 0.052,0.531 q 0.111,0.515 0.456,0.828 0.457,0.416 1.238,0.457 a 3.339,3.339 0 0 0 0.176,0.004 2.825,2.825 0 0 0 0.74,-0.088 q 0.846,-0.23 1.074,-1.061 a 2.627,2.627 0 0 0 0.084,-0.695 2.789,2.789 0 0 0 -0.095,-0.763 q -0.332,-1.166 -1.826,-1.166 a 2.721,2.721 0 0 0 -0.555,0.053 q -0.34,0.071 -0.599,0.236 a 1.493,1.493 0 0 0 -0.253,0.203 1.556,1.556 0 0 0 -0.376,0.634 q -0.116,0.358 -0.116,0.827 z m -4.82,-5.715 a 0.607,0.607 0 0 0 -0.134,0.19 q -0.085,0.185 -0.085,0.462 a 1.531,1.531 0 0 0 0.007,0.147 q 0.031,0.329 0.212,0.506 a 0.728,0.728 0 0 0 0.263,0.167 0.824,0.824 0 0 0 0.284,0.048 0.757,0.757 0 0 0 0.539,-0.215 q 0.226,-0.215 0.226,-0.653 a 1.484,1.484 0 0 0 -0.006,-0.14 q -0.032,-0.333 -0.22,-0.508 a 0.764,0.764 0 0 0 -0.539,-0.211 0.99,0.99 0 0 0 -0.066,0.002 0.75,0.75 0 0 0 -0.481,0.205 z"
       id="right_labelLayer"
       stroke="#777777"
       fill="#777777"
       style="fill:#777777;stroke:#777777"
       vector-effect="non-scaling-stroke" />
    <path
       d="m 209,123 v 26.5 h -3 v 21 h 3 v 21 5.5 h 25.5 v 3 h 21 v -3 h 21 v 3 h 21 v -3 h 21 4.5 v -26.5 h 3 v -21 h -3 v -21 -5.5 h -25.5 v -3 h -21 v 3 h -21 v -3 h -21 v 3 h -21 z"
       id="bottom_outsideCutPath"
       stroke="#FF0000"
       stroke-width="0.1"
       style="stroke:#ff0000;stroke-width:0.20041159;stroke-dasharray:none"
       vector-effect="non-scaling-stroke" />
    <path
       d="m 292.32,166 h -1.297 v -5.571 q 0,-0.641 -0.171,-1.081 a 1.567,1.567 0 0 0 -0.266,-0.454 1.365,1.365 0 0 0 -0.634,-0.41 q -0.227,-0.073 -0.502,-0.093 a 3.01,3.01 0 0 0 -0.223,-0.008 3.337,3.337 0 0 0 -0.68,0.064 q -0.403,0.084 -0.708,0.278 a 1.717,1.717 0 0 0 -0.402,0.353 2.143,2.143 0 0 0 -0.363,0.658 q -0.213,0.597 -0.215,1.469 a 7.141,7.141 0 0 0 0,0.014 V 166 h -1.297 v -5.571 q 0,-0.641 -0.171,-1.081 a 1.567,1.567 0 0 0 -0.266,-0.454 q -0.379,-0.443 -1.126,-0.502 a 3.037,3.037 0 0 0 -0.241,-0.009 3.221,3.221 0 0 0 -0.666,0.064 q -0.721,0.152 -1.119,0.666 a 2.175,2.175 0 0 0 -0.323,0.613 q -0.209,0.591 -0.239,1.478 a 9.03,9.03 0 0 0 -0.005,0.304 V 166 h -1.297 v -8.563 h 1.055 l 0.211,1.172 h 0.062 a 2.549,2.549 0 0 1 1.036,-0.976 3.079,3.079 0 0 1 1.216,-0.342 3.719,3.719 0 0 1 0.28,-0.01 4.246,4.246 0 0 1 0.955,0.1 q 0.588,0.136 0.998,0.457 a 2.214,2.214 0 0 1 0.672,0.896 h 0.062 a 2.708,2.708 0 0 1 1.02,-1.012 3.254,3.254 0 0 1 0.09,-0.05 3.282,3.282 0 0 1 1.204,-0.367 4.093,4.093 0 0 1 0.452,-0.024 4.508,4.508 0 0 1 0.818,0.069 q 0.454,0.084 0.809,0.27 a 2.137,2.137 0 0 1 0.549,0.407 q 0.526,0.543 0.669,1.561 a 5.948,5.948 0 0 1 0.053,0.826 z m -51.343,-1.102 h -0.094 L 240.609,166 h -0.929 v -12.156 h 1.297 v 2.953 a 27.039,27.039 0 0 1 -0.015,0.913 q -0.016,0.461 -0.048,0.868 h 0.063 a 2.949,2.949 0 0 1 2.152,-1.25 4.429,4.429 0 0 1 0.535,-0.031 3.964,3.964 0 0 1 1.116,0.148 2.967,2.967 0 0 1 1.505,1.004 q 0.934,1.152 0.934,3.262 0,1.488 -0.469,2.508 a 3.645,3.645 0 0 1 -0.473,0.769 3.07,3.07 0 0 1 -2.182,1.147 4.399,4.399 0 0 1 -0.431,0.021 3.934,3.934 0 0 1 -0.988,-0.12 3.423,3.423 0 0 1 -0.539,-0.189 2.872,2.872 0 0 1 -1.16,-0.949 z m 22.109,0.031 v 0.993 a 1.276,1.276 0 0 1 -0.151,0.06 q -0.188,0.062 -0.47,0.108 a 5.621,5.621 0 0 1 -0.367,0.047 q -0.172,0.017 -0.328,0.019 a 3.325,3.325 0 0 1 -0.043,0 3.387,3.387 0 0 1 -0.999,-0.134 q -1.097,-0.339 -1.384,-1.531 a 4.076,4.076 0 0 1 -0.102,-0.952 v -5.094 h -1.226 v -0.625 l 1.226,-0.539 0.547,-1.828 h 0.75 v 1.984 h 2.484 v 1.008 h -2.484 v 5.039 a 2.611,2.611 0 0 0 0.038,0.459 q 0.08,0.447 0.329,0.729 0.367,0.414 1.008,0.414 a 4.259,4.259 0 0 0 0.624,-0.045 3.925,3.925 0 0 0 0.04,-0.006 q 0.306,-0.049 0.491,-0.101 a 1.951,1.951 0 0 0 0.017,-0.005 z m 5.648,0 v 0.993 a 1.276,1.276 0 0 1 -0.151,0.06 q -0.188,0.062 -0.47,0.108 a 5.621,5.621 0 0 1 -0.366,0.047 q -0.173,0.017 -0.328,0.019 a 3.325,3.325 0 0 1 -0.044,0 3.387,3.387 0 0 1 -0.998,-0.134 q -1.097,-0.339 -1.385,-1.531 a 4.076,4.076 0 0 1 -0.101,-0.952 v -5.094 h -1.227 v -0.625 l 1.227,-0.539 0.546,-1.828 h 0.75 v 1.984 h 2.485 v 1.008 h -2.485 v 5.039 a 2.611,2.611 0 0 0 0.038,0.459 q 0.08,0.447 0.33,0.729 0.367,0.414 1.007,0.414 a 4.259,4.259 0 0 0 0.624,-0.045 3.925,3.925 0 0 0 0.041,-0.006 q 0.305,-0.049 0.49,-0.101 a 1.951,1.951 0 0 0 0.017,-0.005 z m -11.978,-1.915 a 6.699,6.699 0 0 0 0.119,-1.303 q 0,-0.833 -0.176,-1.524 a 4.038,4.038 0 0 0 -0.883,-1.711 3.395,3.395 0 0 0 -1.576,-1.016 4.358,4.358 0 0 0 -1.279,-0.179 5.037,5.037 0 0 0 -0.905,0.078 3.43,3.43 0 0 0 -2.001,1.09 q -1.047,1.168 -1.047,3.262 a 6.488,6.488 0 0 0 0.081,1.051 4.798,4.798 0 0 0 0.403,1.308 4.263,4.263 0 0 0 0.095,0.185 3.511,3.511 0 0 0 1.28,1.362 q 0.891,0.539 2.039,0.539 a 5.036,5.036 0 0 0 0.88,-0.073 3.457,3.457 0 0 0 2.034,-1.103 3.618,3.618 0 0 0 0.431,-0.592 q 0.351,-0.601 0.505,-1.374 z m 20.961,0 a 6.699,6.699 0 0 0 0.119,-1.303 q 0,-0.833 -0.176,-1.524 a 4.038,4.038 0 0 0 -0.883,-1.711 3.395,3.395 0 0 0 -1.576,-1.016 4.358,4.358 0 0 0 -1.279,-0.179 5.037,5.037 0 0 0 -0.905,0.078 3.43,3.43 0 0 0 -2.001,1.09 q -1.047,1.168 -1.047,3.262 a 6.488,6.488 0 0 0 0.081,1.051 4.798,4.798 0 0 0 0.403,1.308 4.263,4.263 0 0 0 0.094,0.185 3.511,3.511 0 0 0 1.281,1.362 q 0.891,0.539 2.039,0.539 a 5.036,5.036 0 0 0 0.88,-0.073 3.457,3.457 0 0 0 2.034,-1.103 3.618,3.618 0 0 0 0.431,-0.592 q 0.351,-0.601 0.505,-1.374 z m -27.365,-1.303 a 6.567,6.567 0 0 0 0.062,0.938 q 0.14,0.968 0.594,1.562 0.656,0.859 1.929,0.859 a 3.012,3.012 0 0 0 0.795,-0.099 2.096,2.096 0 0 0 1.139,-0.756 q 0.66,-0.856 0.66,-2.504 a 6.471,6.471 0 0 0 -0.061,-0.922 q -0.068,-0.47 -0.21,-0.85 a 2.67,2.67 0 0 0 -0.389,-0.709 2.133,2.133 0 0 0 -1.326,-0.791 3.271,3.271 0 0 0 -0.623,-0.056 3.086,3.086 0 0 0 -0.769,0.09 2.066,2.066 0 0 0 -1.153,0.746 2.681,2.681 0 0 0 -0.417,0.805 q -0.123,0.37 -0.181,0.823 a 6.853,6.853 0 0 0 -0.05,0.864 z m 20.96,0 a 6.567,6.567 0 0 0 0.063,0.938 q 0.14,0.968 0.594,1.562 0.656,0.859 1.929,0.859 a 3.012,3.012 0 0 0 0.795,-0.099 2.096,2.096 0 0 0 1.139,-0.756 q 0.66,-0.856 0.66,-2.504 a 6.471,6.471 0 0 0 -0.061,-0.922 q -0.068,-0.47 -0.211,-0.85 a 2.67,2.67 0 0 0 -0.388,-0.709 2.133,2.133 0 0 0 -1.326,-0.791 3.271,3.271 0 0 0 -0.623,-0.056 3.086,3.086 0 0 0 -0.769,0.09 2.066,2.066 0 0 0 -1.153,0.746 2.681,2.681 0 0 0 -0.417,0.805 q -0.123,0.37 -0.181,0.823 a 6.853,6.853 0 0 0 -0.051,0.864 z m -29.249,-3.006 a 1.725,1.725 0 0 0 -0.501,0.439 2.22,2.22 0 0 0 -0.321,0.612 q -0.217,0.608 -0.256,1.532 a 9.992,9.992 0 0 0 -0.008,0.423 q 0,1.533 0.434,2.324 a 1.956,1.956 0 0 0 0.167,0.258 q 0.602,0.777 1.93,0.777 1.195,0 1.781,-0.871 a 2.977,2.977 0 0 0 0.368,-0.797 q 0.218,-0.712 0.218,-1.707 a 7.662,7.662 0 0 0 -0.046,-0.873 q -0.11,-0.955 -0.481,-1.531 a 2.151,2.151 0 0 0 -0.059,-0.088 1.891,1.891 0 0 0 -1.204,-0.762 2.999,2.999 0 0 0 -0.608,-0.058 q -0.864,0 -1.414,0.322 z"
       id="bottom_labelLayer"
       stroke="#777777"
       fill="#777777"
       style="fill:#777777;stroke:#777777"
       vector-effect="non-scaling-stroke" />
  </g>
  <rect
     style="fill:none;stroke:#ff0000;stroke-width:0.2;stroke-dasharray:none;stroke-opacity:1"
     id="rect1"
     width="64.836983"
     height="36.836983"
     x="27.581509"
     y="51.581509"
     ry="0.22057945" />
  <rect
     style="fill:none;stroke:#ff0000;stroke-width:0.2;stroke-dasharray:none;stroke-opacity:1"
     id="rect2"
     width="49.806034"
     height="39.806034"
     x="35.096985"
     y="163.09698"
     ry="0.30135006" />
  <rect
     style="fill:none;stroke:#ff0000;stroke-width:0.2;stroke-dasharray:none;stroke-opacity:1"
     id="rect3"
     width="5.8887892"
     height="5.8887892"
     x="57.055607"
     y="223.0556"
     ry="0.22050151" />
  <ellipse
     style="fill:none;stroke:#ff0000;stroke-width:0.2;stroke-dasharray:none;stroke-opacity:1"
     id="path3"
     cx="60"
     cy="260"
     rx="10.912369"
     ry="10.912368" />
</svg>
