0
SECTION
2
HEADER
9
$INSUNITS
70
4
0
ENDSEC
0
SECTION
2
TABLES
0
TABLE
2
LTYPE
0
LTYPE
72
65
70
64
2
CONTINUOUS
3
______
73
0
40
0
0
ENDTAB
0
TABLE
2
LAYER
0
ENDTAB
0
ENDSEC
0
SECTION
2
ENTITIES
0
LINE
8
front_outsideCutPath
10
0
20
143
11
0
21
125.5
0
LINE
8
front_outsideCutPath
10
0
20
125.5
11
3
21
125.5
0
LINE
8
front_outsideCutPath
10
3
20
125.5
11
3
21
104.5
0
LINE
8
front_outsideCutPath
10
3
20
104.5
11
0
21
104.5
0
LINE
8
front_outsideCutPath
10
0
20
104.5
11
0
21
83.5
0
LINE
8
front_outsideCutPath
10
0
20
83.5
11
3
21
83.5
0
LINE
8
front_outsideCutPath
10
3
20
83.5
11
3
21
62.5
0
LINE
8
front_outsideCutPath
10
3
20
62.5
11
0
21
62.5
0
LINE
8
front_outsideCutPath
10
0
20
62.5
11
0
21
41.5
0
LINE
8
front_outsideCutPath
10
0
20
41.5
11
3
21
41.5
0
LINE
8
front_outsideCutPath
10
3
20
41.5
11
3
21
20.5
0
LINE
8
front_outsideCutPath
10
3
20
20.5
11
0
21
20.5
0
LINE
8
front_outsideCutPath
10
0
20
20.5
11
0
21
3
0
LINE
8
front_outsideCutPath
10
0
20
3
11
28.5
21
3
0
LINE
8
front_outsideCutPath
10
28.5
20
3
11
28.5
21
6
0
LINE
8
front_outsideCutPath
10
28.5
20
6
11
49.5
21
6
0
LINE
8
front_outsideCutPath
10
49.5
20
6
11
49.5
21
3
0
LINE
8
front_outsideCutPath
10
49.5
20
3
11
70.5
21
3
0
LINE
8
front_outsideCutPath
10
70.5
20
3
11
70.5
21
6
0
LINE
8
front_outsideCutPath
10
70.5
20
6
11
91.5
21
6
0
LINE
8
front_outsideCutPath
10
91.5
20
6
11
91.5
21
3
0
LINE
8
front_outsideCutPath
10
91.5
20
3
11
112.5
21
3
0
LINE
8
front_outsideCutPath
10
112.5
20
3
11
120
21
3
0
LINE
8
front_outsideCutPath
10
120
20
3
11
120
21
20.5
0
LINE
8
front_outsideCutPath
10
120
20
20.5
11
117
21
20.5
0
LINE
8
front_outsideCutPath
10
117
20
20.5
11
117
21
41.5
0
LINE
8
front_outsideCutPath
10
117
20
41.5
11
120
21
41.5
0
LINE
8
front_outsideCutPath
10
120
20
41.5
11
120
21
62.5
0
LINE
8
front_outsideCutPath
10
120
20
62.5
11
117
21
62.5
0
LINE
8
front_outsideCutPath
10
117
20
62.5
11
117
21
83.5
0
LINE
8
front_outsideCutPath
10
117
20
83.5
11
120
21
83.5
0
LINE
8
front_outsideCutPath
10
120
20
83.5
11
120
21
104.5
0
LINE
8
front_outsideCutPath
10
120
20
104.5
11
117
21
104.5
0
LINE
8
front_outsideCutPath
10
117
20
104.5
11
117
21
125.5
0
LINE
8
front_outsideCutPath
10
117
20
125.5
11
120
21
125.5
0
LINE
8
front_outsideCutPath
10
120
20
125.5
11
120
21
143
0
LINE
8
front_outsideCutPath
10
120
20
143
11
91.5
21
143
0
LINE
8
front_outsideCutPath
10
91.5
20
143
11
91.5
21
140
0
LINE
8
front_outsideCutPath
10
91.5
20
140
11
70.5
21
140
0
LINE
8
front_outsideCutPath
10
70.5
20
140
11
70.5
21
143
0
LINE
8
front_outsideCutPath
10
70.5
20
143
11
49.5
21
143
0
LINE
8
front_outsideCutPath
10
49.5
20
143
11
49.5
21
140
0
LINE
8
front_outsideCutPath
10
49.5
20
140
11
28.5
21
140
0
LINE
8
front_outsideCutPath
10
28.5
20
140
11
28.5
21
143
0
LINE
8
front_outsideCutPath
10
28.5
20
143
11
7.5
21
143
0
LINE
8
front_outsideCutPath
10
7.5
20
143
11
0
21
143
0
LINE
8
front_labelLayer
10
40.1191406
20
76.779551
11
40.1191406
21
75.2678323
0
LINE
8
front_labelLayer
10
40.1191406
20
75.2678323
11
36.8496094
21
75.2678323
0
LINE
8
front_labelLayer
10
36.8496094
20
75.2678323
11
36.8496094
21
63.935801
0
LINE
8
front_labelLayer
10
36.8496094
20
63.935801
11
34.9042969
21
63.935801
0
LINE
8
front_labelLayer
10
34.9042969
20
63.935801
11
34.9042969
21
75.2678323
0
LINE
8
front_labelLayer
10
34.9042969
20
75.2678323
11
32.6074219
21
75.2678323
0
LINE
8
front_labelLayer
10
32.6074219
20
75.2678323
11
32.6074219
21
76.1467385
0
LINE
8
front_labelLayer
10
32.6074219
20
76.1467385
11
34.9042969
21
76.8498635
0
LINE
8
front_labelLayer
10
34.9042969
20
76.8498635
11
34.9042969
21
77.5647073
0
LINE
8
front_labelLayer
10
41.4316406
20
81.888926
11
40.9277344
21
80.3303323
0
LINE
8
front_labelLayer
10
36.8496094
20
77.6115823
11
36.8496094
21
76.779551
0
LINE
8
front_labelLayer
10
36.8496094
20
76.779551
11
40.1191406
21
76.779551
0
ARC
8
front_labelLayer
10
42.7879639
20
77.6553428
40
7.884188
50
167.5775948
51
180.6586785
0
ARC
8
front_labelLayer
10
39.0805621
20
78.5196945
40
4.0779123
50
141.7433822
51
168.232208
0
ARC
8
front_labelLayer
10
38.4769219
20
78.8347492
40
3.4111711
50
98.255151
51
139.6203295
0
ARC
8
front_labelLayer
10
39.006927
20
76.3863271
40
5.9128533
50
89.6696779
51
99.9314286
0
ARC
8
front_labelLayer
10
39.008405
20
76.0347912
40
6.264376
50
81.5641045
51
89.7017324
0
ARC
8
front_labelLayer
10
38.5680049
20
72.962339
40
9.3682062
50
75.9739961
51
81.6564686
0
ARC
8
front_labelLayer
10
37.8122821
20
69.8277554
40
12.5925214
50
73.2963655
51
76.0946302
0
ARC
8
front_labelLayer
10
38.0025872
20
71.3482853
40
9.4463566
50
71.9613325
51
76.5918389
0
ARC
8
front_labelLayer
10
38.7354404
20
74.4571146
40
6.2523317
50
76.5183649
51
83.0216906
0
ARC
8
front_labelLayer
10
38.9907206
20
76.5100229
40
4.1836179
50
83.0761153
51
89.79267
0
ARC
8
front_labelLayer
10
38.9823207
20
78.0702558
40
2.6234633
50
89.4859136
51
103.4197501
0
ARC
8
front_labelLayer
10
38.745797
20
78.9789544
40
1.6847918
50
102.7677441
51
144.3380244
0
ARC
8
front_labelLayer
10
39.2222985
20
78.6723701
40
2.2508577
50
145.0688775
51
162.1801624
0
ARC
8
front_labelLayer
10
40.8560478
20
78.1226961
40
3.9745079
50
161.8437735
51
171.7847009
0
ARC
8
front_labelLayer
10
43.5206795
20
77.722474
40
6.6690023
50
171.6527609
51
178.4383731
0
ARC
8
front_labelLayer
10
46.0340631
20
77.6152963
40
9.1844545
50
178.1973059
51
180.0231694
0
LINE
8
front_labelLayer
10
49.8574219
20
76.873301
11
49.5878906
21
75.0686135
0
LINE
8
front_labelLayer
10
44.4082031
20
70.826426
11
44.4082031
21
63.935801
0
LINE
8
front_labelLayer
10
44.4082031
20
63.935801
11
42.4628906
21
63.935801
0
LINE
8
front_labelLayer
10
42.4628906
20
63.935801
11
42.4628906
21
76.779551
0
LINE
8
front_labelLayer
10
42.4628906
20
76.779551
11
44.0683594
21
76.779551
0
LINE
8
front_labelLayer
10
44.0683594
20
76.779551
11
44.2910156
21
74.4006448
0
LINE
8
front_labelLayer
10
44.2910156
20
74.4006448
11
44.3847656
21
74.4006448
0
ARC
8
front_labelLayer
10
48.3422306
20
68.0832722
40
8.9306762
50
84.9923067
51
90.1280878
0
ARC
8
front_labelLayer
10
48.5566973
20
70.4861902
40
6.5182106
50
78.4892141
51
85.0265752
0
ARC
8
front_labelLayer
10
47.7242652
20
66.7000992
40
8.5735134
50
77.4453873
51
81.6360416
0
ARC
8
front_labelLayer
10
48.0977982
20
69.2748378
40
5.9718273
50
81.5884234
51
87.1916388
0
ARC
8
front_labelLayer
10
48.1789361
20
70.681793
40
4.5626024
50
87.3436609
51
89.966037
0
ARC
8
front_labelLayer
10
48.1600825
20
71.8738121
40
3.3706516
50
89.6335429
51
137.0880721
0
ARC
8
front_labelLayer
10
48.9873171
20
70.9435685
40
4.6114089
50
135.6209225
51
138.837725
0
ARC
8
front_labelLayer
10
48.8660883
20
71.0618982
40
4.4422678
50
138.9575762
51
174.5422245
0
ARC
8
front_labelLayer
10
50.3128377
20
70.8355233
40
5.9046416
50
173.6907564
51
180.0882758
0
ARC
8
front_labelLayer
10
50.1082811
20
71.1760434
40
6.5693747
50
139.4139236
51
150.6032966
0
ARC
8
front_labelLayer
10
48.9304011
20
72.1853624
40
5.0182054
50
124.2321636
51
139.4160933
0
ARC
8
front_labelLayer
10
48.3005842
20
73.1360654
40
3.8779211
50
89.6796578
51
124.4405652
0
ARC
8
front_labelLayer
10
53.2976064
20
70.3016529
40
10.048325
50
349.1761848
51
0.3862689
0
ARC
8
front_labelLayer
10
56.6806304
20
69.6272398
40
6.5988955
50
330.2507088
51
349.4116414
0
ARC
8
front_labelLayer
10
57.7217556
20
69.0861052
40
5.4266731
50
318.1439818
51
329.7566157
0
ARC
8
front_labelLayer
10
57.90967
20
68.9355107
40
5.186241
50
278.8959142
51
317.9979157
0
ARC
8
front_labelLayer
10
57.4255001
20
71.2552017
40
7.5538476
50
269.7502864
51
279.8033342
0
ARC
8
front_labelLayer
10
57.3469767
20
69.9482024
40
6.2469429
50
253.5436952
51
270.4182511
0
ARC
8
front_labelLayer
10
57.1390282
20
69.1438064
40
5.4166642
50
238.8115546
51
253.2428384
0
ARC
8
front_labelLayer
10
57.0719167
20
69.0088451
40
5.2664697
50
207.7947012
51
238.6757963
0
ARC
8
front_labelLayer
10
58.0349269
20
69.5986458
40
6.3938119
50
205.6560415
51
208.4461506
0
ARC
8
front_labelLayer
10
58.776686
20
69.9077089
40
7.1963807
50
188.9102519
51
205.3171454
0
ARC
8
front_labelLayer
10
61.2764493
20
70.3310878
40
9.7316027
50
179.774463
51
189.0932878
0
ARC
8
front_labelLayer
10
61.6452118
20
70.4378074
40
10.1005216
50
169.2442975
51
180.3880772
0
ARC
8
front_labelLayer
10
58.2151536
20
71.1158054
40
6.604245
50
150.7111509
51
169.4695445
0
ARC
8
front_labelLayer
10
57.1201601
20
71.6781269
40
5.3743262
50
138.1759262
51
150.2287565
0
ARC
8
front_labelLayer
10
56.9380309
20
71.8178901
40
5.1454329
50
99.1759396
51
137.9832734
0
ARC
8
front_labelLayer
10
57.4393519
20
69.4586107
40
7.5553974
50
89.7326269
51
100.0759727
0
ARC
8
front_labelLayer
10
57.5395504
20
70.4775091
40
6.5367395
50
73.5222687
51
90.5692303
0
ARC
8
front_labelLayer
10
57.9228911
20
71.8702854
40
5.0925067
50
41.1445685
51
73.2133837
0
ARC
8
front_labelLayer
10
57.1911245
20
71.2413418
40
6.0573904
50
13.5014349
51
41.0703455
0
ARC
8
front_labelLayer
10
54.3639549
20
70.5015086
40
8.9793531
50
1.1277128
51
13.8800049
0
ARC
8
front_labelLayer
10
51.9281599
20
70.3710015
40
11.4175433
50
359.9919372
51
1.5419349
0
ARC
8
front_labelLayer
10
63.4114534
20
70.3188417
40
9.8510362
50
179.705971
51
187.9160766
0
ARC
8
front_labelLayer
10
59.798397
20
69.7998305
40
6.2009516
50
187.7639294
51
200.0976817
0
ARC
8
front_labelLayer
10
57.807978
20
69.0705384
40
4.0811324
50
200.0845823
51
216.9131551
0
ARC
8
front_labelLayer
10
57.0811489
20
68.5515488
40
3.1883642
50
217.3009547
51
261.7099106
0
ARC
8
front_labelLayer
10
57.4185669
20
70.1616731
40
4.8313858
50
260.5033213
51
270.2476922
0
ARC
8
front_labelLayer
10
57.482972
20
69.8485838
40
4.5184611
50
269.4481552
51
284.7255622
0
ARC
8
front_labelLayer
10
57.8406711
20
68.5219911
40
3.1445297
50
284.5662336
51
322.6333806
0
ARC
8
front_labelLayer
10
57.0043502
20
69.1261955
40
4.1760003
50
323.0089257
51
342.6390464
0
ARC
8
front_labelLayer
10
54.6123008
20
69.9079865
40
6.6924346
50
342.3615655
51
353.7537662
0
ARC
8
front_labelLayer
10
51.0832114
20
70.3333711
40
10.2469298
50
353.5363176
51
0.2014268
0
ARC
8
front_labelLayer
10
51.6239303
20
70.4189351
40
9.7062742
50
359.7075639
51
7.8972796
0
ARC
8
front_labelLayer
10
55.1786305
20
70.9285364
40
6.1152909
50
7.7439865
51
20.0690117
0
ARC
8
front_labelLayer
10
57.1594637
20
71.6554278
40
4.0053009
50
20.0256933
51
37.4350686
0
ARC
8
front_labelLayer
10
57.8166804
20
72.1217802
40
3.2000982
50
37.9577645
51
80.400624
0
ARC
8
front_labelLayer
10
57.4432017
20
70.4553487
40
4.9063088
50
79.345361
51
90.3174798
0
ARC
8
front_labelLayer
10
57.3740474
20
70.732157
40
4.6296155
50
89.4805969
51
103.8805122
0
ARC
8
front_labelLayer
10
56.9850391
20
72.213495
40
3.0982933
50
103.4685158
51
142.3118982
0
ARC
8
front_labelLayer
10
57.7413026
20
71.6816365
40
4.022135
50
142.90258
51
162.3749602
0
ARC
8
front_labelLayer
10
60.1242865
20
70.887514
40
6.5338029
50
162.0653208
51
173.1674858
0
ARC
8
front_labelLayer
10
63.8399688
20
70.4136004
40
10.2795168
50
173.0086176
51
180.2463933
0
LINE
8
front_labelLayer
10
77.4902344
20
63.935801
11
75.5449219
21
63.935801
0
LINE
8
front_labelLayer
10
75.5449219
20
63.935801
11
75.5449219
21
72.2443948
0
LINE
8
front_labelLayer
10
68.7011719
20
70.6740823
11
68.7011719
21
63.935801
0
LINE
8
front_labelLayer
10
68.7011719
20
63.935801
11
66.7558594
21
63.935801
0
LINE
8
front_labelLayer
10
66.7558594
20
63.935801
11
66.7558594
21
76.779551
0
LINE
8
front_labelLayer
10
66.7558594
20
76.779551
11
68.3378906
21
76.779551
0
LINE
8
front_labelLayer
10
68.3378906
20
76.779551
11
68.6542969
21
75.0217385
0
LINE
8
front_labelLayer
10
68.6542969
20
75.0217385
11
68.7480469
21
75.0217385
0
LINE
8
front_labelLayer
10
77.4902344
20
72.3147073
11
77.4902344
21
63.935801
0
ARC
8
front_labelLayer
10
70.0461243
20
72.2759318
40
5.498888
50
359.6713974
51
8.6877446
0
ARC
8
front_labelLayer
10
72.0841557
20
72.5991527
40
3.4354381
50
8.4931304
51
22.6579834
0
ARC
8
front_labelLayer
10
73.1196258
20
73.0294616
40
2.3141176
50
22.7024411
51
42.341961
0
ARC
8
front_labelLayer
10
73.2360172
20
73.0818172
40
2.1931832
50
43.3791031
51
71.5386002
0
ARC
8
front_labelLayer
10
72.8007693
20
71.8656194
40
3.4847306
50
71.0828127
51
84.3690969
0
ARC
8
front_labelLayer
10
72.6053957
20
70.2044755
40
5.1571246
50
84.0197962
51
90.1510837
0
ARC
8
front_labelLayer
10
72.5500058
20
69.4741689
40
5.8875617
50
89.5932996
51
100.3717866
0
ARC
8
front_labelLayer
10
72.1339379
20
71.6571444
40
3.6653847
50
100.11765
51
118.1602609
0
ARC
8
front_labelLayer
10
71.7146428
20
72.4793456
40
2.7426864
50
118.5439281
51
139.1926809
0
ARC
8
front_labelLayer
10
72.0802469
20
72.2340215
40
3.1801855
50
140.1519217
51
160.3146348
0
ARC
8
front_labelLayer
10
74.2879665
20
71.4071021
40
5.5375403
50
159.9534206
51
171.3801261
0
ARC
8
front_labelLayer
10
77.8943338
20
70.8273882
40
9.1901161
50
171.1765723
51
178.3217742
0
ARC
8
front_labelLayer
10
81.1637023
20
70.6792219
40
12.4625315
50
178.0810754
51
180.0236292
0
ARC
8
front_labelLayer
10
72.0758001
20
72.9141626
40
3.9390123
50
116.9442908
51
147.6525703
0
ARC
8
front_labelLayer
10
72.4856124
20
72.2287862
40
4.7360017
50
115.8071098
51
117.6068573
0
ARC
8
front_labelLayer
10
72.6954071
20
71.7396818
40
5.2677127
50
94.322676
51
115.5454416
0
ARC
8
front_labelLayer
10
72.8214873
20
70.6442778
40
6.3696498
50
89.9578613
51
94.7108837
0
ARC
8
front_labelLayer
10
72.8736007
20
69.3336483
40
7.6804242
50
80.5585281
51
90.3538205
0
ARC
8
front_labelLayer
10
73.3535798
20
72.1138642
40
4.8591655
50
65.109428
51
80.7638198
0
ARC
8
front_labelLayer
10
73.9146538
20
73.3566273
40
3.4957185
50
46.5584535
51
64.87825
0
ARC
8
front_labelLayer
10
73.9595572
20
73.4860809
40
3.371321
50
19.3848791
51
45.5997037
0
ARC
8
front_labelLayer
10
72.0091361
20
72.7542492
40
5.4542466
50
6.9633763
51
19.8363358
0
ARC
8
front_labelLayer
10
69.0009918
20
72.3498006
40
8.4893151
50
359.7631485
51
7.211566
0
LINE
8
front_labelLayer
10
87.3925781
20
65.5412698
11
87.3925781
21
64.0529885
0
LINE
8
front_labelLayer
10
81.6269531
20
67.6272073
11
81.6269531
21
75.2678323
0
LINE
8
front_labelLayer
10
81.6269531
20
75.2678323
11
79.7871094
21
75.2678323
0
LINE
8
front_labelLayer
10
79.7871094
20
75.2678323
11
79.7871094
21
76.2053323
0
LINE
8
front_labelLayer
10
79.7871094
20
76.2053323
11
81.6269531
21
77.013926
0
LINE
8
front_labelLayer
10
81.6269531
20
77.013926
11
82.4472656
21
79.7561135
0
LINE
8
front_labelLayer
10
82.4472656
20
79.7561135
11
83.5722656
21
79.7561135
0
LINE
8
front_labelLayer
10
83.5722656
20
79.7561135
11
83.5722656
21
76.779551
0
LINE
8
front_labelLayer
10
83.5722656
20
76.779551
11
87.2988281
21
76.779551
0
LINE
8
front_labelLayer
10
87.2988281
20
76.779551
11
87.2988281
21
75.2678323
0
LINE
8
front_labelLayer
10
87.2988281
20
75.2678323
11
83.5722656
21
75.2678323
0
LINE
8
front_labelLayer
10
83.5722656
20
75.2678323
11
83.5722656
21
67.7092385
0
ARC
8
front_labelLayer
10
85.6481062
20
71.6955538
40
6.3886729
50
269.8803567
51
278.3028336
0
ARC
8
front_labelLayer
10
85.7089876
20
71.1981686
40
5.8877209
50
278.4155406
51
279.0081712
0
ARC
8
front_labelLayer
10
84.9920162
20
75.7784426
40
10.5237659
50
278.9590101
51
280.5103943
0
ARC
8
front_labelLayer
10
85.6752037
20
72.1126678
40
6.7948739
50
280.4847891
51
282.6267799
0
ARC
8
front_labelLayer
10
86.2743731
20
69.4507118
40
4.0663209
50
282.58766
51
285.5794473
0
ARC
8
front_labelLayer
10
86.5734693
20
68.350401
40
2.9261164
50
285.7245036
51
286.256048
0
ARC
8
front_labelLayer
10
86.5747227
20
65.7827976
40
1.9134071
50
287.9887831
51
295.3048298
0
ARC
8
front_labelLayer
10
86.1132416
20
67.1789714
40
3.3838602
50
283.3068705
51
288.1198548
0
ARC
8
front_labelLayer
10
85.6256649
20
69.2128078
40
5.4753182
50
280.0070318
51
283.3734769
0
ARC
8
front_labelLayer
10
85.2993429
20
70.9838195
40
7.2761039
50
279.186299
51
280.1142077
0
ARC
8
front_labelLayer
10
85.099253
20
72.1218612
40
8.431508
50
275.5260434
51
279.2939448
0
ARC
8
front_labelLayer
10
85.324895
20
69.7650633
40
6.0639347
50
270.8932317
51
275.5483613
0
ARC
8
front_labelLayer
10
85.3532416
20
68.6884502
40
4.9870241
50
270.0031482
51
270.7604232
0
ARC
8
front_labelLayer
10
85.2750169
20
68.7816953
40
5.0808757
50
253.7848016
51
270.8852459
0
ARC
8
front_labelLayer
10
84.673068
20
66.7288186
40
2.9415753
50
190.3817606
51
253.8772428
0
ARC
8
front_labelLayer
10
87.7411859
20
67.5583836
40
6.11462
50
179.3550883
51
192.8477587
0
ARC
8
front_labelLayer
10
87.4894163
20
67.6847403
40
3.9172273
50
179.6416712
51
189.7505711
0
ARC
8
front_labelLayer
10
86.1065473
20
67.4380897
40
2.5125779
50
189.5479422
51
205.7873769
0
ARC
8
front_labelLayer
10
85.5382587
20
67.1760334
40
1.886913
50
206.1294343
51
221.408378
0
ARC
8
front_labelLayer
10
85.4745364
20
67.1276828
40
1.8071497
50
221.5949186
51
262.3505072
0
ARC
8
front_labelLayer
10
85.6260826
20
67.9069915
40
2.6001111
50
261.3266248
51
270.1913377
0
LINE
8
left_outsideCutPath
10
126
20
143
11
126
21
125.5
0
LINE
8
left_outsideCutPath
10
126
20
125.5
11
123
21
125.5
0
LINE
8
left_outsideCutPath
10
123
20
125.5
11
123
21
104.5
0
LINE
8
left_outsideCutPath
10
123
20
104.5
11
126
21
104.5
0
LINE
8
left_outsideCutPath
10
126
20
104.5
11
126
21
83.5
0
LINE
8
left_outsideCutPath
10
126
20
83.5
11
123
21
83.5
0
LINE
8
left_outsideCutPath
10
123
20
83.5
11
123
21
62.5
0
LINE
8
left_outsideCutPath
10
123
20
62.5
11
126
21
62.5
0
LINE
8
left_outsideCutPath
10
126
20
62.5
11
126
21
41.5
0
LINE
8
left_outsideCutPath
10
126
20
41.5
11
123
21
41.5
0
LINE
8
left_outsideCutPath
10
123
20
41.5
11
123
21
20.5
0
LINE
8
left_outsideCutPath
10
123
20
20.5
11
126
21
20.5
0
LINE
8
left_outsideCutPath
10
126
20
20.5
11
126
21
3
0
LINE
8
left_outsideCutPath
10
126
20
3
11
152.5
21
3
0
LINE
8
left_outsideCutPath
10
152.5
20
3
11
152.5
21
6
0
LINE
8
left_outsideCutPath
10
152.5
20
6
11
173.5
21
6
0
LINE
8
left_outsideCutPath
10
173.5
20
6
11
173.5
21
3
0
LINE
8
left_outsideCutPath
10
173.5
20
3
11
194.5
21
3
0
LINE
8
left_outsideCutPath
10
194.5
20
3
11
200
21
3
0
LINE
8
left_outsideCutPath
10
200
20
3
11
200
21
20.5
0
LINE
8
left_outsideCutPath
10
200
20
20.5
11
203
21
20.5
0
LINE
8
left_outsideCutPath
10
203
20
20.5
11
203
21
41.5
0
LINE
8
left_outsideCutPath
10
203
20
41.5
11
200
21
41.5
0
LINE
8
left_outsideCutPath
10
200
20
41.5
11
200
21
62.5
0
LINE
8
left_outsideCutPath
10
200
20
62.5
11
203
21
62.5
0
LINE
8
left_outsideCutPath
10
203
20
62.5
11
203
21
83.5
0
LINE
8
left_outsideCutPath
10
203
20
83.5
11
200
21
83.5
0
LINE
8
left_outsideCutPath
10
200
20
83.5
11
200
21
104.5
0
LINE
8
left_outsideCutPath
10
200
20
104.5
11
203
21
104.5
0
LINE
8
left_outsideCutPath
10
203
20
104.5
11
203
21
125.5
0
LINE
8
left_outsideCutPath
10
203
20
125.5
11
200
21
125.5
0
LINE
8
left_outsideCutPath
10
200
20
125.5
11
200
21
143
0
LINE
8
left_outsideCutPath
10
200
20
143
11
173.5
21
143
0
LINE
8
left_outsideCutPath
10
173.5
20
143
11
173.5
21
140
0
LINE
8
left_outsideCutPath
10
173.5
20
140
11
152.5
21
140
0
LINE
8
left_outsideCutPath
10
152.5
20
140
11
152.5
21
143
0
LINE
8
left_outsideCutPath
10
152.5
20
143
11
131.5
21
143
0
LINE
8
left_outsideCutPath
10
131.5
20
143
11
126
21
143
0
LINE
8
left_labelLayer
10
153.1054687
20
79.1134506
11
153.1054687
21
66.9572006
0
LINE
8
left_labelLayer
10
153.1054687
20
66.9572006
11
151.8085937
21
66.9572006
0
LINE
8
left_labelLayer
10
151.8085937
20
66.9572006
11
151.8085937
21
79.1134506
0
LINE
8
left_labelLayer
10
151.8085937
20
79.1134506
11
153.1054687
21
79.1134506
0
LINE
8
left_labelLayer
10
162.6210937
20
71.8243881
11
162.6210937
21
71.0040756
0
LINE
8
left_labelLayer
10
162.6210937
20
71.0040756
11
156.7226562
21
71.0040756
0
LINE
8
left_labelLayer
10
162.2539062
20
68.5118881
11
162.2539062
21
67.3556381
0
LINE
8
left_labelLayer
10
156.7539062
20
72.0587631
11
161.2304687
21
72.0587631
0
ARC
8
left_labelLayer
10
159.4300144
20
71.8403675
40
5.0395973
50
256.0087887
51
270.4848064
0
ARC
8
left_labelLayer
10
159.0630323
20
70.4156683
40
3.5684575
50
223.546581
51
256.1956972
0
ARC
8
left_labelLayer
10
159.2654777
20
70.5628082
40
3.8167052
50
194.0877221
51
223.0538198
0
ARC
8
left_labelLayer
10
161.1204313
20
71.0700717
40
5.7394841
50
181.3574416
51
194.492008
0
ARC
8
left_labelLayer
10
162.7868246
20
71.1666852
40
7.4079186
50
179.9887624
51
181.7991586
0
ARC
8
left_labelLayer
10
162.1886215
20
71.213818
40
6.8098685
50
168.9539306
51
180.384337
0
ARC
8
left_labelLayer
10
159.9645458
20
71.6666772
40
4.5402673
50
149.407099
51
169.1853769
0
ARC
8
left_labelLayer
10
159.3448797
20
71.9940816
40
3.8403745
50
140.1055981
51
148.9067248
0
ARC
8
left_labelLayer
10
158.9641823
20
72.3450678
40
3.3232742
50
92.4762638
51
140.5386341
0
ARC
8
left_labelLayer
10
159.1338264
20
71.0913766
40
4.584575
50
89.9638531
51
93.9176202
0
ARC
8
left_labelLayer
10
159.1743016
20
71.7250503
40
3.951079
50
74.2125816
51
90.5450092
0
ARC
8
left_labelLayer
10
159.42177
20
72.6368291
40
3.0063826
50
41.206463
51
74.02327
0
ARC
8
left_labelLayer
10
158.9531112
20
72.2312397
40
3.6261674
50
11.5994295
51
41.1495971
0
ARC
8
left_labelLayer
10
157.3428294
20
71.8598771
40
5.2783836
50
359.6147717
51
12.0336471
0
ARC
8
left_labelLayer
10
161.9267976
20
71.1080635
40
5.2051802
50
181.1447181
51
190.8007151
0
ARC
8
left_labelLayer
10
160.0904614
20
70.7458849
40
3.3335253
50
190.6005633
51
206.0275362
0
ARC
8
left_labelLayer
10
159.2780116
20
70.3617939
40
2.4349578
50
206.2950268
51
222.555788
0
ARC
8
left_labelLayer
10
159.2060195
20
70.3240998
40
2.3565271
50
223.0644999
51
258.1401381
0
ARC
8
left_labelLayer
10
159.4926151
20
71.5041862
40
3.5705247
50
257.5311794
51
270.4319235
0
ARC
8
left_labelLayer
10
159.4958132
20
74.7832357
40
6.8495137
50
270.1984007
51
292.2090359
0
ARC
8
left_labelLayer
10
159.1669244
20
75.7277974
40
7.8484906
50
291.8254572
51
293.1613457
0
ARC
8
left_labelLayer
10
159.1511213
20
74.4962712
40
7.7856224
50
287.9023213
51
293.48616
0
ARC
8
left_labelLayer
10
159.7159104
20
72.7537039
40
5.9538134
50
281.9935777
51
287.8851313
0
ARC
8
left_labelLayer
10
159.8527925
20
72.2617099
40
5.4442069
50
275.9054295
51
281.6604142
0
ARC
8
left_labelLayer
10
159.5787734
20
74.8194219
40
8.0165437
50
271.9119759
51
275.9726852
0
ARC
8
left_labelLayer
10
159.478762
20
77.3666423
40
10.5656934
50
269.9668897
51
271.993156
0
ARC
8
left_labelLayer
10
159.096208
20
72.0336893
40
2.556445
50
89.4422454
51
106.2089578
0
ARC
8
left_labelLayer
10
158.9424107
20
72.5944614
40
1.9750522
50
106.4657151
51
137.9176226
0
ARC
8
left_labelLayer
10
159.3833534
20
72.2072406
40
2.5618396
50
138.0994689
51
160.5866322
0
ARC
8
left_labelLayer
10
160.5168025
20
71.7902634
40
3.7694782
50
160.3353337
51
172.531508
0
ARC
8
left_labelLayer
10
161.6328169
20
71.6114472
40
4.8993735
50
172.1544908
51
174.761564
0
ARC
8
left_labelLayer
10
156.811265
20
72.0838688
40
4.419275
50
359.674503
51
8.9224676
0
ARC
8
left_labelLayer
10
158.390363
20
72.3411598
40
2.8193955
50
8.7342269
51
23.2771893
0
ARC
8
left_labelLayer
10
159.1400258
20
72.6558478
40
2.0064068
50
23.4821663
51
39.7071787
0
ARC
8
left_labelLayer
10
159.3241761
20
72.7936517
40
1.7767365
50
40.0822817
51
80.6243333
0
ARC
8
left_labelLayer
10
159.1346316
20
71.9247833
40
2.6652641
50
79.6468551
51
90.2910274
0
LINE
8
left_labelLayer
10
168.6914062
20
75.5197006
11
168.6914062
21
74.5118881
0
LINE
8
left_labelLayer
10
168.6914062
20
74.5118881
11
166.5117187
21
74.5118881
0
LINE
8
left_labelLayer
10
166.5117187
20
74.5118881
11
166.5117187
21
66.9572006
0
LINE
8
left_labelLayer
10
166.5117187
20
66.9572006
11
165.2148437
21
66.9572006
0
LINE
8
left_labelLayer
10
165.2148437
20
66.9572006
11
165.2148437
21
74.5118881
0
LINE
8
left_labelLayer
10
165.2148437
20
74.5118881
11
163.6835937
21
74.5118881
0
LINE
8
left_labelLayer
10
163.6835937
20
74.5118881
11
163.6835937
21
75.0978256
0
LINE
8
left_labelLayer
10
163.6835937
20
75.0978256
11
165.2148437
21
75.5665756
0
LINE
8
left_labelLayer
10
165.2148437
20
75.5665756
11
165.2148437
21
76.0431381
0
LINE
8
left_labelLayer
10
169.5664062
20
78.9259506
11
169.2304687
21
77.8868881
0
LINE
8
left_labelLayer
10
166.5117187
20
76.0743881
11
166.5117187
21
75.5197006
0
LINE
8
left_labelLayer
10
166.5117187
20
75.5197006
11
168.6914062
21
75.5197006
0
ARC
8
left_labelLayer
10
170.4706372
20
76.1035605
40
5.2561408
50
167.5776172
51
180.6586624
0
ARC
8
left_labelLayer
10
167.9990211
20
76.6797966
40
2.7186086
50
141.7433936
51
168.2322161
0
ARC
8
left_labelLayer
10
167.596594
20
76.8898326
40
2.2741143
50
98.2551559
51
139.620331
0
ARC
8
left_labelLayer
10
167.9499323
20
75.2575413
40
3.9419123
50
89.669706
51
99.9314304
0
ARC
8
left_labelLayer
10
167.9509169
20
75.0232213
40
4.1762233
50
81.5640647
51
89.7017457
0
ARC
8
left_labelLayer
10
167.6573158
20
72.9748926
40
6.2454708
50
75.9739961
51
81.6564686
0
ARC
8
left_labelLayer
10
167.1535158
20
70.8852287
40
8.3949538
50
73.2963503
51
76.0946352
0
ARC
8
left_labelLayer
10
167.2803462
20
71.8987709
40
6.2976603
50
71.9613634
51
76.5918041
0
ARC
8
left_labelLayer
10
167.7689489
20
73.971466
40
4.1681641
50
76.5183113
51
83.0217261
0
ARC
8
left_labelLayer
10
167.9391256
20
75.3400328
40
2.7890612
50
83.0760593
51
89.7926562
0
ARC
8
left_labelLayer
10
167.933527
20
76.3801656
40
1.7489804
50
89.48594
51
103.4197374
0
ARC
8
left_labelLayer
10
167.7758433
20
76.9859702
40
1.1231938
50
102.7677284
51
144.3380381
0
ARC
8
left_labelLayer
10
168.0935123
20
76.7815803
40
1.5005723
50
145.0689034
51
162.1801816
0
ARC
8
left_labelLayer
10
169.1826737
20
76.415132
40
2.6496677
50
161.8437745
51
171.7847177
0
ARC
8
left_labelLayer
10
170.9591524
20
76.1483106
40
4.4460553
50
171.6527938
51
178.438324
0
ARC
8
left_labelLayer
10
172.6344185
20
76.0768704
40
6.1227002
50
178.1972851
51
180.023229
0
LINE
8
left_labelLayer
10
174.1914062
20
68.0275131
11
174.1914062
21
67.0353256
0
LINE
8
left_labelLayer
10
170.3476562
20
69.4181381
11
170.3476562
21
74.5118881
0
LINE
8
left_labelLayer
10
170.3476562
20
74.5118881
11
169.1210937
21
74.5118881
0
LINE
8
left_labelLayer
10
169.1210937
20
74.5118881
11
169.1210937
21
75.1368881
0
LINE
8
left_labelLayer
10
169.1210937
20
75.1368881
11
170.3476562
21
75.6759506
0
LINE
8
left_labelLayer
10
170.3476562
20
75.6759506
11
170.8945312
21
77.5040756
0
LINE
8
left_labelLayer
10
170.8945312
20
77.5040756
11
171.6445312
21
77.5040756
0
LINE
8
left_labelLayer
10
171.6445312
20
77.5040756
11
171.6445312
21
75.5197006
0
LINE
8
left_labelLayer
10
171.6445312
20
75.5197006
11
174.1289062
21
75.5197006
0
LINE
8
left_labelLayer
10
174.1289062
20
75.5197006
11
174.1289062
21
74.5118881
0
LINE
8
left_labelLayer
10
174.1289062
20
74.5118881
11
171.6445312
21
74.5118881
0
LINE
8
left_labelLayer
10
171.6445312
20
74.5118881
11
171.6445312
21
69.4728256
0
ARC
8
left_labelLayer
10
173.028425
20
72.13037
40
4.2591162
50
269.8803567
51
278.3028318
0
ARC
8
left_labelLayer
10
173.069082
20
71.7984162
40
3.9247782
50
278.4153127
51
279.0079991
0
ARC
8
left_labelLayer
10
172.5909597
20
74.8527022
40
7.0162574
50
278.9590721
51
280.5103649
0
ARC
8
left_labelLayer
10
173.0466175
20
72.4078125
40
4.5292706
50
280.4846589
51
282.6269548
0
ARC
8
left_labelLayer
10
173.4459704
20
70.6336615
40
2.7107303
50
282.5876285
51
285.5795817
0
ARC
8
left_labelLayer
10
173.6453327
20
69.9003354
40
1.9508101
50
285.7239904
51
286.255517
0
ARC
8
left_labelLayer
10
173.6461611
20
68.1885515
40
1.2756262
50
287.9888574
51
295.3047808
0
ARC
8
left_labelLayer
10
173.338486
20
69.1194209
40
2.2560173
50
283.3069695
51
288.1197178
0
ARC
8
left_labelLayer
10
173.0134524
20
70.4752683
40
3.6502763
50
280.0070407
51
283.3734265
0
ARC
8
left_labelLayer
10
172.7962238
20
71.6540659
40
4.8488964
50
279.1861309
51
280.1143916
0
ARC
8
left_labelLayer
10
172.6625213
20
72.4145687
40
5.6210002
50
275.5260636
51
279.2939685
0
ARC
8
left_labelLayer
10
172.8129446
20
70.8434553
40
4.0427032
50
270.8933019
51
275.5483393
0
ARC
8
left_labelLayer
10
172.8318486
20
70.1256334
40
3.3246827
50
270.0031482
51
270.7604232
0
ARC
8
left_labelLayer
10
172.7796983
20
70.1877974
40
3.3872511
50
253.7848117
51
270.8852531
0
ARC
8
left_labelLayer
10
172.3783992
20
68.8192123
40
1.9610501
50
190.3817602
51
253.8772488
0
ARC
8
left_labelLayer
10
174.4238107
20
69.3722561
40
4.0764128
50
179.3550948
51
192.8477675
0
ARC
8
left_labelLayer
10
174.2559482
20
69.4564927
40
2.6114681
50
179.6416537
51
189.7506186
0
ARC
8
left_labelLayer
10
173.3340483
20
69.2920584
40
1.6750477
50
189.5479202
51
205.787396
0
ARC
8
left_labelLayer
10
172.9551876
20
69.117352
40
1.2579354
50
206.1294055
51
221.4084301
0
ARC
8
left_labelLayer
10
172.9127116
20
69.0851214
40
1.2047661
50
221.5949113
51
262.3505133
0
ARC
8
left_labelLayer
10
173.0137434
20
69.6046592
40
1.7334058
50
261.3265906
51
270.1913121
0
LINE
8
top_outsideCutPath
10
209
20
80
11
209
21
53.5
0
LINE
8
top_outsideCutPath
10
209
20
53.5
11
206
21
53.5
0
LINE
8
top_outsideCutPath
10
206
20
53.5
11
206
21
32.5
0
LINE
8
top_outsideCutPath
10
206
20
32.5
11
209
21
32.5
0
LINE
8
top_outsideCutPath
10
209
20
32.5
11
209
21
11.5
0
LINE
8
top_outsideCutPath
10
209
20
11.5
11
209
21
6
0
LINE
8
top_outsideCutPath
10
209
20
6
11
234.5
21
6
0
LINE
8
top_outsideCutPath
10
234.5
20
6
11
234.5
21
3
0
LINE
8
top_outsideCutPath
10
234.5
20
3
11
255.5
21
3
0
LINE
8
top_outsideCutPath
10
255.5
20
3
11
255.5
21
6
0
LINE
8
top_outsideCutPath
10
255.5
20
6
11
276.5
21
6
0
LINE
8
top_outsideCutPath
10
276.5
20
6
11
276.5
21
3
0
LINE
8
top_outsideCutPath
10
276.5
20
3
11
297.5
21
3
0
LINE
8
top_outsideCutPath
10
297.5
20
3
11
297.5
21
6
0
LINE
8
top_outsideCutPath
10
297.5
20
6
11
318.5
21
6
0
LINE
8
top_outsideCutPath
10
318.5
20
6
11
323
21
6
0
LINE
8
top_outsideCutPath
10
323
20
6
11
323
21
32.5
0
LINE
8
top_outsideCutPath
10
323
20
32.5
11
326
21
32.5
0
LINE
8
top_outsideCutPath
10
326
20
32.5
11
326
21
53.5
0
LINE
8
top_outsideCutPath
10
326
20
53.5
11
323
21
53.5
0
LINE
8
top_outsideCutPath
10
323
20
53.5
11
323
21
74.5
0
LINE
8
top_outsideCutPath
10
323
20
74.5
11
323
21
80
0
LINE
8
top_outsideCutPath
10
323
20
80
11
297.5
21
80
0
LINE
8
top_outsideCutPath
10
297.5
20
80
11
297.5
21
83
0
LINE
8
top_outsideCutPath
10
297.5
20
83
11
276.5
21
83
0
LINE
8
top_outsideCutPath
10
276.5
20
83
11
276.5
21
80
0
LINE
8
top_outsideCutPath
10
276.5
20
80
11
255.5
21
80
0
LINE
8
top_outsideCutPath
10
255.5
20
80
11
255.5
21
83
0
LINE
8
top_outsideCutPath
10
255.5
20
83
11
234.5
21
83
0
LINE
8
top_outsideCutPath
10
234.5
20
83
11
234.5
21
80
0
LINE
8
top_outsideCutPath
10
234.5
20
80
11
213.5
21
80
0
LINE
8
top_outsideCutPath
10
213.5
20
80
11
209
21
80
0
LINE
8
top_labelLayer
10
259.0780588
20
40.71875
11
259.0780588
21
39.7265625
0
LINE
8
top_labelLayer
10
255.2343088
20
42.109375
11
255.2343088
21
47.203125
0
LINE
8
top_labelLayer
10
255.2343088
20
47.203125
11
254.0077463
21
47.203125
0
LINE
8
top_labelLayer
10
254.0077463
20
47.203125
11
254.0077463
21
47.828125
0
LINE
8
top_labelLayer
10
254.0077463
20
47.828125
11
255.2343088
21
48.3671875
0
LINE
8
top_labelLayer
10
255.2343088
20
48.3671875
11
255.7811838
21
50.1953125
0
LINE
8
top_labelLayer
10
255.7811838
20
50.1953125
11
256.5311838
21
50.1953125
0
LINE
8
top_labelLayer
10
256.5311838
20
50.1953125
11
256.5311838
21
48.2109375
0
LINE
8
top_labelLayer
10
256.5311838
20
48.2109375
11
259.0155588
21
48.2109375
0
LINE
8
top_labelLayer
10
259.0155588
20
48.2109375
11
259.0155588
21
47.203125
0
LINE
8
top_labelLayer
10
259.0155588
20
47.203125
11
256.5311838
21
47.203125
0
LINE
8
top_labelLayer
10
256.5311838
20
47.203125
11
256.5311838
21
42.1640625
0
ARC
8
top_labelLayer
10
257.9150776
20
44.8216069
40
4.2591162
50
269.8803567
51
278.3028318
0
ARC
8
top_labelLayer
10
257.9557346
20
44.4896531
40
3.9247782
50
278.4153127
51
279.0079991
0
ARC
8
top_labelLayer
10
257.4776123
20
47.5439391
40
7.0162574
50
278.9590721
51
280.5103649
0
ARC
8
top_labelLayer
10
257.9332701
20
45.0990494
40
4.5292706
50
280.4846589
51
282.6269548
0
ARC
8
top_labelLayer
10
258.332623
20
43.3248984
40
2.7107303
50
282.5876285
51
285.5795817
0
ARC
8
top_labelLayer
10
258.5319853
20
42.5915723
40
1.9508101
50
285.7239904
51
286.255517
0
ARC
8
top_labelLayer
10
258.5328137
20
40.8797884
40
1.2756262
50
287.9888574
51
295.3047808
0
ARC
8
top_labelLayer
10
258.2251386
20
41.8106578
40
2.2560173
50
283.3069695
51
288.1197178
0
ARC
8
top_labelLayer
10
257.900105
20
43.1665052
40
3.6502763
50
280.0070407
51
283.3734265
0
ARC
8
top_labelLayer
10
257.6828764
20
44.3453028
40
4.8488964
50
279.1861309
51
280.1143916
0
ARC
8
top_labelLayer
10
257.5491739
20
45.1058056
40
5.6210002
50
275.5260636
51
279.2939685
0
ARC
8
top_labelLayer
10
257.6995972
20
43.5346922
40
4.0427032
50
270.8933019
51
275.5483393
0
ARC
8
top_labelLayer
10
257.7185012
20
42.8168703
40
3.3246827
50
270.0031482
51
270.7604232
0
ARC
8
top_labelLayer
10
257.6663509
20
42.8790343
40
3.3872511
50
253.7848117
51
270.8852531
0
ARC
8
top_labelLayer
10
257.2650518
20
41.5104492
40
1.9610501
50
190.3817602
51
253.8772488
0
ARC
8
top_labelLayer
10
259.3104634
20
42.063493
40
4.0764128
50
179.3550948
51
192.8477675
0
ARC
8
top_labelLayer
10
259.1426008
20
42.1477296
40
2.6114681
50
179.6416537
51
189.7506186
0
ARC
8
top_labelLayer
10
258.2207009
20
41.9832953
40
1.6750477
50
189.5479202
51
205.787396
0
ARC
8
top_labelLayer
10
257.8418402
20
41.8085889
40
1.2579354
50
206.1294055
51
221.4084301
0
ARC
8
top_labelLayer
10
257.7993642
20
41.7763583
40
1.2047661
50
221.5949113
51
262.3505133
0
ARC
8
top_labelLayer
10
257.900396
20
42.2958961
40
1.7334058
50
261.3265906
51
270.1913121
0
ARC
8
top_labelLayer
10
261.4808769
20
43.8923393
40
6.6988966
50
349.1762012
51
0.3862631
0
ARC
8
top_labelLayer
10
263.7362426
20
43.442729
40
4.3992605
50
330.2507006
51
349.4116472
0
ARC
8
top_labelLayer
10
264.4303378
20
43.0819625
40
3.6177637
50
318.1439573
51
329.7566506
0
ARC
8
top_labelLayer
10
264.5555989
20
42.9815781
40
3.4574948
50
278.8959168
51
317.9979082
0
ARC
8
top_labelLayer
10
264.2328194
20
44.5280376
40
5.035898
50
269.7502859
51
279.8033344
0
ARC
8
top_labelLayer
10
264.1804708
20
43.6567048
40
4.1646282
50
253.5436888
51
270.4182458
0
ARC
8
top_labelLayer
10
264.041843
20
43.1204516
40
3.6111209
50
238.8115736
51
253.2428111
0
ARC
8
top_labelLayer
10
263.9970968
20
43.0304669
40
3.5109796
50
207.794703
51
238.6757998
0
ARC
8
top_labelLayer
10
264.6393302
20
43.4237796
40
4.2627938
50
205.6560831
51
208.4460268
0
ARC
8
top_labelLayer
10
265.1336104
20
43.6297094
40
4.7975876
50
188.9102511
51
205.3171429
0
ARC
8
top_labelLayer
10
266.8001151
20
43.9119626
40
6.4877316
50
179.7744682
51
189.0932982
0
ARC
8
top_labelLayer
10
267.0459615
20
43.9831083
40
6.7336821
50
169.2442988
51
180.3880767
0
ARC
8
top_labelLayer
10
264.7592567
20
44.4351068
40
4.4028317
50
150.7111575
51
169.469544
0
ARC
8
top_labelLayer
10
264.029277
20
44.8099757
40
3.5829056
50
138.1759663
51
150.2287244
0
ARC
8
top_labelLayer
10
263.9078393
20
44.9031644
40
3.4302876
50
99.175932
51
137.9832767
0
ARC
8
top_labelLayer
10
264.2420555
20
43.3303046
40
5.0369378
50
89.7326461
51
100.0759793
0
ARC
8
top_labelLayer
10
264.3088519
20
44.0095682
40
4.3578344
50
73.5222869
51
90.5692168
0
ARC
8
top_labelLayer
10
264.5644126
20
44.9380932
40
3.3950052
50
41.1445676
51
73.2133749
0
ARC
8
top_labelLayer
10
264.0765687
20
44.5187977
40
4.0382607
50
13.5014391
51
41.0703471
0
ARC
8
top_labelLayer
10
262.191791
20
44.0255755
40
5.9862338
50
1.1277169
51
13.8800126
0
ARC
8
top_labelLayer
10
260.5690205
20
43.9385833
40
7.6106009
50
359.9918443
51
1.5420649
0
ARC
8
top_labelLayer
10
268.2234443
20
43.9037958
40
6.567347
50
179.7059517
51
187.9160706
0
ARC
8
top_labelLayer
10
265.8147652
20
43.5577941
40
4.1339827
50
187.7639522
51
200.0976598
0
ARC
8
top_labelLayer
10
264.4877977
20
43.0715924
40
2.7207473
50
200.0845656
51
216.9131853
0
ARC
8
top_labelLayer
10
264.0032513
20
42.7256019
40
2.1255753
50
217.3009467
51
261.7099208
0
ARC
8
top_labelLayer
10
264.2281969
20
43.7990098
40
3.2209149
50
260.5033005
51
270.2476987
0
ARC
8
top_labelLayer
10
264.2711328
20
43.5902962
40
3.0123109
50
269.4481787
51
284.7255674
0
ARC
8
top_labelLayer
10
264.5096007
20
42.7058966
40
2.096352
50
284.5662212
51
322.6333896
0
ARC
8
top_labelLayer
10
263.9520515
20
43.108701
40
2.7840014
50
323.0089322
51
342.6390441
0
ARC
8
top_labelLayer
10
262.3573492
20
43.629895
40
4.4616269
50
342.3615742
51
353.7537649
0
ARC
8
top_labelLayer
10
260.0046286
20
43.9134853
40
6.8312849
50
353.5363074
51
0.2014182
0
ARC
8
top_labelLayer
10
260.3650936
20
43.9705256
40
6.470862
50
359.707576
51
7.8972758
0
ARC
8
top_labelLayer
10
262.7349074
20
44.3102606
40
4.0768595
50
7.7439955
51
20.0690237
0
ARC
8
top_labelLayer
10
264.0554633
20
44.7948567
40
2.6701986
50
20.0256779
51
37.4350666
0
ARC
8
top_labelLayer
10
264.4936057
20
45.1057562
40
2.1333995
50
37.957772
51
80.4006157
0
ARC
8
top_labelLayer
10
264.2446194
20
43.9947956
40
3.2708796
50
79.3453667
51
90.3174619
0
ARC
8
top_labelLayer
10
264.1985182
20
44.179338
40
3.0864138
50
89.480611
51
103.8805101
0
ARC
8
top_labelLayer
10
263.9391788
20
45.1669
40
2.0655291
50
103.468519
51
142.3118967
0
ARC
8
top_labelLayer
10
264.4433568
20
44.8123263
40
2.6814262
50
142.9025851
51
162.3749443
0
ARC
8
top_labelLayer
10
266.0319975
20
44.2829158
40
4.3558556
50
162.0653062
51
173.1675044
0
ARC
8
top_labelLayer
10
268.5091482
20
43.9669679
40
6.8530279
50
173.0086135
51
180.2463718
0
LINE
8
top_labelLayer
10
271.7499338
20
40.75
11
271.6561838
21
40.75
0
LINE
8
top_labelLayer
10
271.7499338
20
39.328125
11
271.7499338
21
35.8046875
0
LINE
8
top_labelLayer
10
271.7499338
20
35.8046875
11
270.4530588
21
35.8046875
0
LINE
8
top_labelLayer
10
270.4530588
20
35.8046875
11
270.4530588
21
48.2109375
0
LINE
8
top_labelLayer
10
270.4530588
20
48.2109375
11
271.5077463
21
48.2109375
0
LINE
8
top_labelLayer
10
271.5077463
20
48.2109375
11
271.6874338
21
47.0390625
0
LINE
8
top_labelLayer
10
271.6874338
20
47.0390625
11
271.7499338
21
47.0390625
0
LINE
8
top_labelLayer
10
271.7499338
20
44.2265625
11
271.7499338
21
43.9375
0
ARC
8
top_labelLayer
10
274.4155646
20
43.4258302
40
3.9337035
50
255.7755313
51
270.3185353
0
ARC
8
top_labelLayer
10
274.3033084
20
42.9270903
40
3.4226987
50
245.9801827
51
255.5455802
0
ARC
8
top_labelLayer
10
274.0858759
20
42.4214463
40
2.8723436
50
215.5850144
51
245.836166
0
ARC
8
top_labelLayer
10
259.4796998
20
39.2113048
40
12.2733185
50
2.9503413
51
7.202073
0
ARC
8
top_labelLayer
10
261.4655505
20
39.3224169
40
10.2843848
50
0.0318008
51
2.9015811
0
ARC
8
top_labelLayer
10
274.6066915
20
45.0327585
40
3.4908911
50
132.3565117
51
144.9195909
0
ARC
8
top_labelLayer
10
274.0719159
20
45.6161812
40
2.699461
50
115.4006069
51
132.3118271
0
ARC
8
top_labelLayer
10
274.2805156
20
45.1083694
40
3.2477939
50
97.7066459
51
114.8821409
0
ARC
8
top_labelLayer
10
274.4261953
20
44.1635734
40
4.203629
50
89.8468179
51
97.9474316
0
ARC
8
top_labelLayer
10
274.4775709
20
44.3921312
40
3.975259
50
74.1923602
51
90.5785091
0
ARC
8
top_labelLayer
10
274.752637
20
45.3920558
40
2.9382297
50
38.0523408
51
74.0417315
0
ARC
8
top_labelLayer
10
273.9939542
20
44.8105589
40
3.8940888
50
16.3356098
51
37.9090434
0
ARC
8
top_labelLayer
10
272.0008907
20
44.1966842
40
5.9794221
50
4.5766478
51
16.6088719
0
ARC
8
top_labelLayer
10
269.5472
20
43.9521913
40
8.444934
50
359.9003246
51
4.9018149
0
ARC
8
top_labelLayer
10
270.3883586
20
43.8926401
40
7.603895
50
350.6562921
51
0.3380242
0
ARC
8
top_labelLayer
10
273.0392137
20
43.4417597
40
4.9150291
50
335.8305902
51
350.8254897
0
ARC
8
top_labelLayer
10
274.2052695
20
42.9384727
40
3.645173
50
321.3161354
51
335.5436222
0
ARC
8
top_labelLayer
10
274.6510561
20
42.5752235
40
3.070154
50
274.0640117
51
321.4080996
0
ARC
8
top_labelLayer
10
274.4433796
20
43.8907371
40
4.3985534
50
269.9225498
51
275.5481397
0
ARC
8
top_labelLayer
10
274.223222
20
43.5289278
40
3.7367927
50
89.5904274
51
100.350199
0
ARC
8
top_labelLayer
10
273.9567618
20
44.9287475
40
2.311902
50
100.0868322
51
118.1917875
0
ARC
8
top_labelLayer
10
273.6837917
20
45.461128
40
1.7137543
50
118.5569297
51
141.0243468
0
ARC
8
top_labelLayer
10
274.0997453
20
45.1677213
40
2.2219251
50
141.8890633
51
160.5973032
0
ARC
8
top_labelLayer
10
275.5615522
20
44.631341
40
3.7789547
50
160.2895587
51
171.2452924
0
ARC
8
top_labelLayer
10
277.9650353
20
44.2438207
40
6.2134409
50
171.086832
51
178.3247467
0
ARC
8
top_labelLayer
10
280.0031242
20
44.1469612
40
8.2535742
50
178.0662591
51
179.4474041
0
ARC
8
top_labelLayer
10
280.32467
20
43.904015
40
8.5748015
50
179.7762566
51
185.7075354
0
ARC
8
top_labelLayer
10
276.9439514
20
43.5556807
40
5.1762112
50
185.5924958
51
194.2050777
0
ARC
8
top_labelLayer
10
274.7782773
20
42.9936119
40
2.9388586
50
193.9430359
51
208.0218247
0
ARC
8
top_labelLayer
10
273.9020463
20
42.5478518
40
1.9560119
50
208.553694
51
217.5605201
0
ARC
8
top_labelLayer
10
273.8306463
20
42.5181512
40
1.8814131
50
218.1690368
51
253.8047259
0
ARC
8
top_labelLayer
10
274.1796111
20
43.5940409
40
3.0121421
50
253.1382275
51
266.8483353
0
ARC
8
top_labelLayer
10
274.2774683
20
44.7480755
40
4.1699521
50
266.3775733
51
270.0510514
0
ARC
8
top_labelLayer
10
274.3107136
20
42.7631132
40
2.1851877
50
269.2257047
51
292.0430208
0
ARC
8
top_labelLayer
10
274.3401966
20
42.5874027
40
2.0116269
50
293.1429804
51
324.135375
0
ARC
8
top_labelLayer
10
273.9019201
20
42.958445
40
2.5845642
50
323.1616909
51
325.0152261
0
ARC
8
top_labelLayer
10
273.4330666
20
43.2491396
40
3.1355201
50
325.5753772
51
344.1504735
0
ARC
8
top_labelLayer
10
271.8105037
20
43.7287856
40
4.8274285
50
343.933633
51
355.1137522
0
ARC
8
top_labelLayer
10
269.7392047
20
43.9389621
40
6.9091812
50
354.8402246
51
0.1174489
0
ARC
8
top_labelLayer
10
270.1040079
20
43.9861521
40
6.5444468
50
359.7108504
51
7.8610246
0
ARC
8
top_labelLayer
10
272.4835815
20
44.3253519
40
4.1408555
50
7.7149615
51
19.8859566
0
ARC
8
top_labelLayer
10
273.7922698
20
44.7980539
40
2.7494131
50
19.8991606
51
35.8980054
0
ARC
8
top_labelLayer
10
274.3760095
20
45.2401325
40
2.0173998
50
35.4481686
51
85.2266504
0
ARC
8
top_labelLayer
10
274.254066
20
44.4754528
40
2.7901753
50
84.0378407
51
90.0848543
0
LINE
8
back_outsideCutPath
10
0
20
286
11
0
21
268.5
0
LINE
8
back_outsideCutPath
10
0
20
268.5
11
3
21
268.5
0
LINE
8
back_outsideCutPath
10
3
20
268.5
11
3
21
247.5
0
LINE
8
back_outsideCutPath
10
3
20
247.5
11
0
21
247.5
0
LINE
8
back_outsideCutPath
10
0
20
247.5
11
0
21
226.5
0
LINE
8
back_outsideCutPath
10
0
20
226.5
11
3
21
226.5
0
LINE
8
back_outsideCutPath
10
3
20
226.5
11
3
21
205.5
0
LINE
8
back_outsideCutPath
10
3
20
205.5
11
0
21
205.5
0
LINE
8
back_outsideCutPath
10
0
20
205.5
11
0
21
184.5
0
LINE
8
back_outsideCutPath
10
0
20
184.5
11
3
21
184.5
0
LINE
8
back_outsideCutPath
10
3
20
184.5
11
3
21
163.5
0
LINE
8
back_outsideCutPath
10
3
20
163.5
11
0
21
163.5
0
LINE
8
back_outsideCutPath
10
0
20
163.5
11
0
21
146
0
LINE
8
back_outsideCutPath
10
0
20
146
11
28.5
21
146
0
LINE
8
back_outsideCutPath
10
28.5
20
146
11
28.5
21
149
0
LINE
8
back_outsideCutPath
10
28.5
20
149
11
49.5
21
149
0
LINE
8
back_outsideCutPath
10
49.5
20
149
11
49.5
21
146
0
LINE
8
back_outsideCutPath
10
49.5
20
146
11
70.5
21
146
0
LINE
8
back_outsideCutPath
10
70.5
20
146
11
70.5
21
149
0
LINE
8
back_outsideCutPath
10
70.5
20
149
11
91.5
21
149
0
LINE
8
back_outsideCutPath
10
91.5
20
149
11
91.5
21
146
0
LINE
8
back_outsideCutPath
10
91.5
20
146
11
112.5
21
146
0
LINE
8
back_outsideCutPath
10
112.5
20
146
11
120
21
146
0
LINE
8
back_outsideCutPath
10
120
20
146
11
120
21
163.5
0
LINE
8
back_outsideCutPath
10
120
20
163.5
11
117
21
163.5
0
LINE
8
back_outsideCutPath
10
117
20
163.5
11
117
21
184.5
0
LINE
8
back_outsideCutPath
10
117
20
184.5
11
120
21
184.5
0
LINE
8
back_outsideCutPath
10
120
20
184.5
11
120
21
205.5
0
LINE
8
back_outsideCutPath
10
120
20
205.5
11
117
21
205.5
0
LINE
8
back_outsideCutPath
10
117
20
205.5
11
117
21
226.5
0
LINE
8
back_outsideCutPath
10
117
20
226.5
11
120
21
226.5
0
LINE
8
back_outsideCutPath
10
120
20
226.5
11
120
21
247.5
0
LINE
8
back_outsideCutPath
10
120
20
247.5
11
117
21
247.5
0
LINE
8
back_outsideCutPath
10
117
20
247.5
11
117
21
268.5
0
LINE
8
back_outsideCutPath
10
117
20
268.5
11
120
21
268.5
0
LINE
8
back_outsideCutPath
10
120
20
268.5
11
120
21
286
0
LINE
8
back_outsideCutPath
10
120
20
286
11
91.5
21
286
0
LINE
8
back_outsideCutPath
10
91.5
20
286
11
91.5
21
283
0
LINE
8
back_outsideCutPath
10
91.5
20
283
11
70.5
21
283
0
LINE
8
back_outsideCutPath
10
70.5
20
283
11
70.5
21
286
0
LINE
8
back_outsideCutPath
10
70.5
20
286
11
49.5
21
286
0
LINE
8
back_outsideCutPath
10
49.5
20
286
11
49.5
21
283
0
LINE
8
back_outsideCutPath
10
49.5
20
283
11
28.5
21
283
0
LINE
8
back_outsideCutPath
10
28.5
20
283
11
28.5
21
286
0
LINE
8
back_outsideCutPath
10
28.5
20
286
11
7.5
21
286
0
LINE
8
back_outsideCutPath
10
7.5
20
286
11
0
21
286
0
LINE
8
back_labelLayer
10
37.0664063
20
208.6524761
11
36.9257813
21
208.6524761
0
LINE
8
back_labelLayer
10
36.9257813
20
208.6524761
11
36.515625
21
207.0001324
0
LINE
8
back_labelLayer
10
36.515625
20
207.0001324
11
35.1210938
21
207.0001324
0
LINE
8
back_labelLayer
10
35.1210938
20
207.0001324
11
35.1210938
21
225.2345074
0
LINE
8
back_labelLayer
10
35.1210938
20
225.2345074
11
37.0664063
21
225.2345074
0
LINE
8
back_labelLayer
10
37.0664063
20
225.2345074
11
37.0664063
21
220.8048199
0
LINE
8
back_labelLayer
10
36.9726563
20
218.1329449
11
37.0664063
21
218.1329449
0
ARC
8
back_labelLayer
10
41.1560129
20
214.1095537
40
5.9455525
50
74.2393375
51
90.5623776
0
ARC
8
back_labelLayer
10
41.5491518
20
215.5518051
40
4.4507589
50
38.5631365
51
74.0670293
0
ARC
8
back_labelLayer
10
40.5374302
20
214.7651328
40
5.7322603
50
16.4709215
51
38.4075341
0
ARC
8
back_labelLayer
10
37.6228095
20
213.8511907
40
8.7865474
50
5.133838
51
16.7973492
0
ARC
8
back_labelLayer
10
33.9433087
20
213.4603268
40
12.4864073
50
359.8779389
51
5.4093642
0
ARC
8
back_labelLayer
10
35.0240579
20
213.3664357
40
11.4058281
50
350.6562831
51
0.3380273
0
ARC
8
back_labelLayer
10
39.0003242
20
212.6901167
40
7.3725456
50
335.8305891
51
350.8254844
0
ARC
8
back_labelLayer
10
40.7494049
20
211.9351877
40
5.4677649
50
321.3161458
51
335.5436187
0
ARC
8
back_labelLayer
10
41.4180905
20
211.3903104
40
4.6052297
50
274.0640024
51
321.4081028
0
ARC
8
back_labelLayer
10
41.10657
20
213.3636235
40
6.5978721
50
269.9225933
51
275.5481475
0
ARC
8
back_labelLayer
10
41.0648519
20
212.6662272
40
5.900561
50
255.7755484
51
270.3185388
0
ARC
8
back_labelLayer
10
40.8964635
20
211.9180987
40
5.1340345
50
245.9801715
51
255.5455942
0
ARC
8
back_labelLayer
10
40.5703199
20
211.1596462
40
4.3085161
50
215.5850158
51
245.8361621
0
ARC
8
back_labelLayer
10
-3.4917601
20
220.7705264
40
40.5581808
50
358.1123256
51
0.0484457
0
ARC
8
back_labelLayer
10
7.795961
20
220.3915756
40
29.2641033
50
355.7238694
51
358.1258854
0
ARC
8
back_labelLayer
10
12.7332046
20
220.0526604
40
24.3153517
50
355.4717421
51
355.6527888
0
ARC
8
back_labelLayer
10
40.6943291
20
215.603097
40
4.4228898
50
95.1835114
51
145.1109019
0
ARC
8
back_labelLayer
10
41.0830844
20
213.41088
40
6.6439559
50
89.8743359
51
96.8145463
0
ARC
8
back_labelLayer
10
40.7756792
20
212.9595871
40
5.4664782
50
89.5731239
51
100.7324421
0
ARC
8
back_labelLayer
10
40.3710071
20
215.0041212
40
3.3823909
50
100.4469409
51
119.6700738
0
ARC
8
back_labelLayer
10
39.9957526
20
215.705704
40
2.5871268
50
120.1402921
51
142.4249147
0
ARC
8
back_labelLayer
10
40.6165794
20
215.2950059
40
3.3300333
50
143.3382316
51
161.2559928
0
ARC
8
back_labelLayer
10
43.2127514
20
214.3732769
40
6.0848252
50
160.89263
51
171.233437
0
ARC
8
back_labelLayer
10
47.5467598
20
213.6740967
40
10.4748073
50
171.0667716
51
177.8456918
0
ARC
8
back_labelLayer
10
52.0538641
20
213.4448572
40
14.987462
50
177.6176493
51
180.0425531
0
ARC
8
back_labelLayer
10
49.9285513
20
213.3835014
40
12.8622431
50
179.7762696
51
185.7075296
0
ARC
8
back_labelLayer
10
44.8574035
20
212.8609906
40
7.7642873
50
185.5924686
51
194.2050835
0
ARC
8
back_labelLayer
10
41.6089109
20
212.0178904
40
4.4082768
50
193.9430235
51
208.0218478
0
ARC
8
back_labelLayer
10
40.2945474
20
211.3492362
40
2.9339851
50
208.5536475
51
217.5605739
0
ARC
8
back_labelLayer
10
40.1874759
20
211.304704
40
2.822121
50
218.1690414
51
253.8047132
0
ARC
8
back_labelLayer
10
40.7109262
20
212.9185583
40
4.5182343
50
253.1382536
51
266.8482973
0
ARC
8
back_labelLayer
10
40.857708
20
214.6495862
40
6.254925
50
266.3775715
51
270.0510514
0
ARC
8
back_labelLayer
10
40.904777
20
212.2724036
40
3.8779619
50
269.3869
51
285.8630723
0
ARC
8
back_labelLayer
10
41.1928858
20
211.2311406
40
2.7976114
50
286.0162882
51
326.8497398
0
ARC
8
back_labelLayer
10
39.8023261
20
212.1523364
40
4.4655995
50
326.7104982
51
343.6661705
0
ARC
8
back_labelLayer
10
37.1992647
20
212.9477452
40
7.1873631
50
343.4171489
51
353.6369015
0
ARC
8
back_labelLayer
10
33.26764
20
213.4142598
40
11.1465053
50
353.4934728
51
0.220537
0
ARC
8
back_labelLayer
10
32.9210761
20
213.503683
40
11.4930805
50
359.768089
51
6.3095294
0
ARC
8
back_labelLayer
10
37.2502825
20
214.0004872
40
7.1355218
50
6.1648611
51
16.0396304
0
ARC
8
back_labelLayer
10
40.0390957
20
214.8223488
40
4.2282367
50
15.7779367
51
32.0151266
0
ARC
8
back_labelLayer
10
40.9088355
20
215.3204285
40
3.2269563
50
32.7033549
51
35.5242843
0
ARC
8
back_labelLayer
10
41.2268091
20
215.546433
40
2.836848
50
35.5408415
51
79.801127
0
ARC
8
back_labelLayer
10
40.8458483
20
213.926895
40
4.4991151
50
78.6781277
51
90.3749445
0
LINE
8
back_labelLayer
10
59.1679688
20
207.0001324
11
57.7265625
21
207.0001324
0
LINE
8
back_labelLayer
10
57.7265625
20
207.0001324
11
57.3398438
21
208.8282574
0
LINE
8
back_labelLayer
10
57.3398438
20
208.8282574
11
57.2460938
21
208.8282574
0
LINE
8
back_labelLayer
10
55.0898438
20
214.6290386
11
57.2695313
21
214.6993511
0
LINE
8
back_labelLayer
10
57.2695313
20
214.6993511
11
57.2695313
21
215.4962261
0
LINE
8
back_labelLayer
10
50.90625
20
217.4649761
11
50.3085938
21
218.9532574
0
LINE
8
back_labelLayer
10
59.1679688
20
215.7657574
11
59.1679688
21
207.0001324
0
LINE
8
back_labelLayer
10
57.2226563
20
212.1563824
11
57.2226563
21
213.3165386
0
LINE
8
back_labelLayer
10
57.2226563
20
213.3165386
11
55.2773438
21
213.2345074
0
ARC
8
back_labelLayer
10
50.9168089
20
213.8255374
40
8.0642827
50
314.7445045
51
321.7071815
0
ARC
8
back_labelLayer
10
52.8980667
20
211.8124287
40
5.2397761
50
304.8485683
51
314.8530525
0
ARC
8
back_labelLayer
10
53.8498429
20
210.457672
40
3.5841275
50
294.3932659
51
304.7371669
0
ARC
8
back_labelLayer
10
53.5246741
20
211.3002076
40
4.4860449
50
281.2979721
51
293.7313636
0
ARC
8
back_labelLayer
10
53.0948287
20
213.3834754
40
6.6131673
50
272.9335189
51
281.4138927
0
ARC
8
back_labelLayer
10
52.9523507
20
215.5202993
40
8.7545448
50
269.9539374
51
273.1490663
0
ARC
8
back_labelLayer
10
52.9031417
20
212.7355185
40
5.9699101
50
258.6719789
51
270.4047341
0
ARC
8
back_labelLayer
10
52.4884631
20
210.7518598
40
3.9434785
50
238.3273093
51
258.9183756
0
ARC
8
back_labelLayer
10
52.2027132
20
210.2305357
40
3.3499013
50
227.7689708
51
237.8049745
0
ARC
8
back_labelLayer
10
52.1133172
20
210.1057406
40
3.1974619
50
192.0827705
51
227.4520684
0
ARC
8
back_labelLayer
10
53.761795
20
210.512105
40
4.8947612
50
179.5457202
51
192.6949237
0
ARC
8
back_labelLayer
10
52.2303715
20
210.6893334
40
3.3660312
50
115.4904639
51
182.3568125
0
ARC
8
back_labelLayer
10
53.9161182
20
207.5973245
40
6.8851829
50
101.3568231
51
117.0798563
0
ARC
8
back_labelLayer
10
55.2699265
20
201.2708621
40
13.3546109
50
92.4696301
51
101.7064987
0
ARC
8
back_labelLayer
10
55.6590492
20
195.6349287
40
19.002637
50
91.7164959
51
92.9095743
0
ARC
8
back_labelLayer
10
51.6822131
20
215.5261319
40
5.5873982
50
359.6933311
51
8.0035842
0
ARC
8
back_labelLayer
10
53.7958086
20
215.8340385
40
3.4515355
50
7.8272768
51
20.6041678
0
ARC
8
back_labelLayer
10
54.9918646
20
216.2915891
40
2.1709825
50
20.409421
51
41.4479502
0
ARC
8
back_labelLayer
10
55.1685826
20
216.3887253
40
1.9747181
50
42.7295591
51
71.0380166
0
ARC
8
back_labelLayer
10
54.7525322
20
215.257477
40
3.1798755
50
70.5716187
51
83.9928721
0
ARC
8
back_labelLayer
10
54.553767
20
213.642922
40
4.8064518
50
83.6506652
51
90.1752873
0
ARC
8
back_labelLayer
10
54.5886353
20
212.1160286
40
6.3335165
50
90.4484618
51
103.7665441
0
ARC
8
back_labelLayer
10
55.3334197
20
208.9752398
40
9.5613448
50
103.6226491
51
112.4320076
0
ARC
8
back_labelLayer
10
56.6101469
20
205.7516201
40
13.0283211
50
112.212251
51
115.9640756
0
ARC
8
back_labelLayer
10
54.5656163
20
211.0586613
40
8.9692189
50
106.3568617
51
118.3349874
0
ARC
8
back_labelLayer
10
54.9476157
20
209.8786886
40
10.2090694
50
104.5162148
51
106.5490009
0
ARC
8
back_labelLayer
10
54.6674835
20
211.0458621
40
9.0089649
50
90.0714437
51
104.6521074
0
ARC
8
back_labelLayer
10
54.7028395
20
211.8390082
40
8.2159438
50
81.5679903
51
90.3249042
0
ARC
8
back_labelLayer
10
55.1778737
20
214.9337296
40
5.085043
50
68.2273531
51
81.7494287
0
ARC
8
back_labelLayer
10
55.8395165
20
216.579956
40
3.310836
50
47.8683227
51
68.293417
0
ARC
8
back_labelLayer
10
55.9469012
20
216.7943713
40
3.0804559
50
19.2331102
51
46.6741178
0
ARC
8
back_labelLayer
10
54.158028
20
216.128907
40
4.98885
50
6.3379064
51
19.6815414
0
ARC
8
back_labelLayer
10
51.5136235
20
215.7921199
40
7.6543905
50
359.8026672
51
6.6583402
0
ARC
8
back_labelLayer
10
53.3713671
20
213.7270931
40
5.3560114
50
269.5792024
51
282.0413563
0
ARC
8
back_labelLayer
10
53.7620494
20
211.9941866
40
3.5797893
50
281.7121037
51
306.4593906
0
ARC
8
back_labelLayer
10
53.9353069
20
211.7092661
40
3.2478135
50
306.9880658
51
313.855952
0
ARC
8
back_labelLayer
10
53.914678
20
211.7033876
40
3.2579223
50
314.1891852
51
347.4269941
0
ARC
8
back_labelLayer
10
52.2826998
20
212.1123542
40
4.9399851
50
346.9177642
51
0.2824686
0
ARC
8
back_labelLayer
10
51.027173
20
212.1563704
40
6.1954831
50
359.8181646
51
0.0001108
0
ARC
8
back_labelLayer
10
55.7400743
20
198.9583896
40
14.283615
50
91.856473
51
96.4478418
0
ARC
8
back_labelLayer
10
55.0959268
20
204.5323752
40
8.6725623
50
96.3545462
51
102.9953265
0
ARC
8
back_labelLayer
10
54.2215352
20
208.2473963
40
4.8560914
50
102.7995334
51
113.2433136
0
ARC
8
back_labelLayer
10
53.5007091
20
209.9713333
40
2.9876637
50
113.58864
51
121.6805252
0
ARC
8
back_labelLayer
10
52.9999098
20
210.7340352
40
2.0757594
50
120.9734075
51
172.4179779
0
ARC
8
back_labelLayer
10
53.9787801
20
210.5385135
40
3.0725498
50
171.2122287
51
180.2058205
0
ARC
8
back_labelLayer
10
53.6862336
20
210.5045059
40
2.7800785
50
179.5265923
51
192.7787119
0
ARC
8
back_labelLayer
10
52.7457802
20
210.2765366
40
1.8125513
50
192.326437
51
222.0579754
0
ARC
8
back_labelLayer
10
52.6758265
20
210.2347053
40
1.7326629
50
222.5805334
51
229.2547152
0
ARC
8
back_labelLayer
10
52.9122111
20
210.5390429
40
2.1176128
50
229.7837093
51
254.2724202
0
ARC
8
back_labelLayer
10
53.2270402
20
211.5881789
40
3.2128636
50
253.9396589
51
266.4533954
0
ARC
8
back_labelLayer
10
53.3275246
20
212.7464363
40
4.3752125
50
266.0783141
51
270.0590167
0
LINE
8
back_labelLayer
10
71.7421875
20
219.4102886
11
71.1445313
21
217.7579449
0
LINE
8
back_labelLayer
10
71.5546875
20
209.1563824
11
71.5546875
21
207.4337261
0
ARC
8
back_labelLayer
10
68.2465471
20
214.0359095
40
7.2704169
50
256.424375
51
270.4889755
0
ARC
8
back_labelLayer
10
67.6655722
20
211.7684124
40
4.9300073
50
221.7976337
51
256.8020476
0
ARC
8
back_labelLayer
10
68.2281797
20
212.1841002
40
5.6268661
50
196.0166595
51
221.1349177
0
ARC
8
back_labelLayer
10
71.0557885
20
213.0483645
40
8.5833254
50
183.5913724
51
196.3539612
0
ARC
8
back_labelLayer
10
74.2233104
20
213.32742
40
11.7623796
50
179.938838
51
183.9815179
0
ARC
8
back_labelLayer
10
73.1941834
20
213.4090816
40
10.7334683
50
169.8978381
51
180.3688909
0
ARC
8
back_labelLayer
10
69.4576191
20
214.1002919
40
6.9336382
50
153.0875155
51
170.1051379
0
ARC
8
back_labelLayer
10
68.0398875
20
214.7777227
40
5.3629556
50
138.6550104
51
152.6853581
0
ARC
8
back_labelLayer
10
67.7752808
20
214.9705501
40
5.0370127
50
101.4912886
51
138.313389
0
ARC
8
back_labelLayer
10
68.3827499
20
212.4423259
40
7.6361278
50
89.5891929
51
102.1787698
0
ARC
8
back_labelLayer
10
68.4294629
20
211.2996238
40
8.7786372
50
77.7702435
51
89.9475437
0
ARC
8
back_labelLayer
10
68.2633636
20
210.3831971
40
9.7095037
50
74.6796517
51
77.9578902
0
ARC
8
back_labelLayer
10
69.1608306
20
213.6345316
40
6.3365884
50
70.0945781
51
74.7386149
0
ARC
8
back_labelLayer
10
70.0145835
20
215.9742407
40
3.8459919
50
63.5033593
51
70.186182
0
ARC
8
back_labelLayer
10
70.4186785
20
216.8207203
40
2.9081851
50
62.9287635
51
63.1880558
0
ARC
8
back_labelLayer
10
67.9488813
20
209.7156031
40
8.653984
50
68.3294447
51
74.8831287
0
ARC
8
back_labelLayer
10
67.4922804
20
208.096532
40
10.3361217
50
74.7802179
51
77.4497198
0
ARC
8
back_labelLayer
10
67.9716661
20
210.3466619
40
8.0356158
50
77.2998867
51
81.7345191
0
ARC
8
back_labelLayer
10
68.3212741
20
212.7827201
40
5.5746039
50
81.6910301
51
87.5078745
0
ARC
8
back_labelLayer
10
68.3887313
20
214.0435114
40
4.3120902
50
87.6749154
51
89.9748374
0
ARC
8
back_labelLayer
10
68.2941898
20
214.0416932
40
4.3149857
50
88.7193951
51
112.5667767
0
ARC
8
back_labelLayer
10
67.9875812
20
215.0554188
40
3.2629329
50
114.4265744
51
161.6632753
0
ARC
8
back_labelLayer
10
71.0334365
20
213.8632387
40
6.5314954
50
160.141842
51
175.1368186
0
ARC
8
back_labelLayer
10
75.2256804
20
213.3924833
40
10.7491571
50
174.5309899
51
180.154949
0
ARC
8
back_labelLayer
10
73.8975281
20
213.3147658
40
9.4210912
50
179.7041396
51
188.0743634
0
ARC
8
back_labelLayer
10
70.5041555
20
212.8182787
40
5.9916414
50
187.9315157
51
200.3885385
0
ARC
8
back_labelLayer
10
68.6693377
20
212.138573
40
4.0349733
50
200.4183427
51
216.6392819
0
ARC
8
back_labelLayer
10
67.9001408
20
211.5886926
40
3.0896597
50
216.9695372
51
261.310298
0
ARC
8
back_labelLayer
10
68.2396052
20
213.1713292
40
4.7064051
50
260.1359366
51
270.2692113
0
ARC
8
back_labelLayer
10
68.2239352
20
216.6081981
40
8.1433096
50
270.2658435
51
286.289149
0
ARC
8
back_labelLayer
10
67.7288779
20
218.454429
40
10.0543766
50
286.0460748
51
292.3653923
0
ARC
8
back_labelLayer
10
69.0472766
20
212.3664012
40
5.5333889
50
282.0344333
51
296.9454504
0
ARC
8
back_labelLayer
10
68.4782053
20
214.9309894
40
8.1602941
50
272.5980407
51
282.1878426
0
ARC
8
back_labelLayer
10
68.3150158
20
217.4338364
40
10.6680809
50
269.9655087
51
272.8642743
0
LINE
8
back_labelLayer
10
76.4296875
20
213.5743511
11
76.5234375
21
213.5743511
0
LINE
8
back_labelLayer
10
78.0585938
20
215.4493511
11
82.2070313
21
219.8438824
0
LINE
8
back_labelLayer
10
82.2070313
20
219.8438824
11
84.515625
21
219.8438824
0
LINE
8
back_labelLayer
10
84.515625
20
219.8438824
11
79.3125
21
214.3712261
0
LINE
8
back_labelLayer
10
79.3125
20
214.3712261
11
84.8789063
21
207.0001324
0
LINE
8
back_labelLayer
10
84.8789063
20
207.0001324
11
82.5234375
21
207.0001324
0
LINE
8
back_labelLayer
10
82.5234375
20
207.0001324
11
77.9882813
21
213.0704449
0
LINE
8
back_labelLayer
10
77.9882813
20
213.0704449
11
76.5234375
21
211.8048199
0
LINE
8
back_labelLayer
10
76.5234375
20
211.8048199
11
76.5234375
21
207.0001324
0
LINE
8
back_labelLayer
10
76.5234375
20
207.0001324
11
74.6015625
21
207.0001324
0
LINE
8
back_labelLayer
10
74.6015625
20
207.0001324
11
74.6015625
21
225.2345074
0
LINE
8
back_labelLayer
10
74.6015625
20
225.2345074
11
76.5234375
21
225.2345074
0
LINE
8
back_labelLayer
10
76.5234375
20
225.2345074
11
76.5234375
21
215.5665386
0
ARC
8
back_labelLayer
10
85.9230727
20
206.9208888
40
11.5161496
50
142.3233921
51
144.7075134
0
ARC
8
back_labelLayer
10
92.056029
20
202.1903801
40
19.2615259
50
140.4331438
51
142.3365299
0
ARC
8
back_labelLayer
10
100.0468476
20
195.6125287
40
29.611457
50
139.2798928
51
140.4703537
0
ARC
8
back_labelLayer
10
109.2876897
20
187.6660521
40
41.7991405
50
138.3417674
51
139.2877318
0
ARC
8
back_labelLayer
10
63.5607382
20
215.5907903
40
12.9627219
50
358.2738775
51
359.8928064
0
ARC
8
back_labelLayer
10
53.4720901
20
215.8719603
40
23.0552729
50
357.5041986
51
358.330657
0
ARC
8
back_labelLayer
10
38.3815175
20
216.5384986
40
38.1605571
50
356.6325087
51
357.491032
0
ARC
8
back_labelLayer
10
13.2909947
20
218.0018532
40
63.2937152
50
356.0329146
51
356.6442668
0
ARC
8
back_labelLayer
10
-3.9153558
20
219.1638508
40
80.5392356
50
356.0204194
51
356.0550964
0
LINE
8
right_outsideCutPath
10
126
20
286
11
126
21
268.5
0
LINE
8
right_outsideCutPath
10
126
20
268.5
11
123
21
268.5
0
LINE
8
right_outsideCutPath
10
123
20
268.5
11
123
21
247.5
0
LINE
8
right_outsideCutPath
10
123
20
247.5
11
126
21
247.5
0
LINE
8
right_outsideCutPath
10
126
20
247.5
11
126
21
226.5
0
LINE
8
right_outsideCutPath
10
126
20
226.5
11
123
21
226.5
0
LINE
8
right_outsideCutPath
10
123
20
226.5
11
123
21
205.5
0
LINE
8
right_outsideCutPath
10
123
20
205.5
11
126
21
205.5
0
LINE
8
right_outsideCutPath
10
126
20
205.5
11
126
21
184.5
0
LINE
8
right_outsideCutPath
10
126
20
184.5
11
123
21
184.5
0
LINE
8
right_outsideCutPath
10
123
20
184.5
11
123
21
163.5
0
LINE
8
right_outsideCutPath
10
123
20
163.5
11
126
21
163.5
0
LINE
8
right_outsideCutPath
10
126
20
163.5
11
126
21
146
0
LINE
8
right_outsideCutPath
10
126
20
146
11
152.5
21
146
0
LINE
8
right_outsideCutPath
10
152.5
20
146
11
152.5
21
149
0
LINE
8
right_outsideCutPath
10
152.5
20
149
11
173.5
21
149
0
LINE
8
right_outsideCutPath
10
173.5
20
149
11
173.5
21
146
0
LINE
8
right_outsideCutPath
10
173.5
20
146
11
194.5
21
146
0
LINE
8
right_outsideCutPath
10
194.5
20
146
11
200
21
146
0
LINE
8
right_outsideCutPath
10
200
20
146
11
200
21
163.5
0
LINE
8
right_outsideCutPath
10
200
20
163.5
11
203
21
163.5
0
LINE
8
right_outsideCutPath
10
203
20
163.5
11
203
21
184.5
0
LINE
8
right_outsideCutPath
10
203
20
184.5
11
200
21
184.5
0
LINE
8
right_outsideCutPath
10
200
20
184.5
11
200
21
205.5
0
LINE
8
right_outsideCutPath
10
200
20
205.5
11
203
21
205.5
0
LINE
8
right_outsideCutPath
10
203
20
205.5
11
203
21
226.5
0
LINE
8
right_outsideCutPath
10
203
20
226.5
11
200
21
226.5
0
LINE
8
right_outsideCutPath
10
200
20
226.5
11
200
21
247.5
0
LINE
8
right_outsideCutPath
10
200
20
247.5
11
203
21
247.5
0
LINE
8
right_outsideCutPath
10
203
20
247.5
11
203
21
268.5
0
LINE
8
right_outsideCutPath
10
203
20
268.5
11
200
21
268.5
0
LINE
8
right_outsideCutPath
10
200
20
268.5
11
200
21
286
0
LINE
8
right_outsideCutPath
10
200
20
286
11
173.5
21
286
0
LINE
8
right_outsideCutPath
10
173.5
20
286
11
173.5
21
283
0
LINE
8
right_outsideCutPath
10
173.5
20
283
11
152.5
21
283
0
LINE
8
right_outsideCutPath
10
152.5
20
283
11
152.5
21
286
0
LINE
8
right_outsideCutPath
10
152.5
20
286
11
131.5
21
286
0
LINE
8
right_outsideCutPath
10
131.5
20
286
11
126
21
286
0
LINE
8
right_labelLayer
10
151.3789062
20
220.4687972
11
151.1992187
21
219.2656722
0
LINE
8
right_labelLayer
10
147.7460937
20
216.4375472
11
147.7460937
21
211.8437972
0
LINE
8
right_labelLayer
10
147.7460937
20
211.8437972
11
146.4492187
21
211.8437972
0
LINE
8
right_labelLayer
10
146.4492187
20
211.8437972
11
146.4492187
21
220.4062972
0
LINE
8
right_labelLayer
10
146.4492187
20
220.4062972
11
147.5195312
21
220.4062972
0
LINE
8
right_labelLayer
10
147.5195312
20
220.4062972
11
147.6679687
21
218.8203597
0
LINE
8
right_labelLayer
10
147.6679687
20
218.8203597
11
147.7304687
21
218.8203597
0
ARC
8
right_labelLayer
10
150.368778
20
214.6088114
40
5.9537507
50
84.9922713
51
90.1280813
0
ARC
8
right_labelLayer
10
150.5117686
20
216.2108072
40
4.3453892
50
78.4891492
51
85.0266376
0
ARC
8
right_labelLayer
10
149.9567974
20
213.6866322
40
5.7157063
50
77.4454105
51
81.6360423
0
ARC
8
right_labelLayer
10
150.2058256
20
215.4031613
40
3.9812118
50
81.5884353
51
87.1916597
0
ARC
8
right_labelLayer
10
150.2599127
20
216.3411176
40
3.0417427
50
87.3436103
51
89.9659798
0
ARC
8
right_labelLayer
10
150.2473465
20
217.1358053
40
2.2471004
50
89.6335396
51
137.0880816
0
ARC
8
right_labelLayer
10
150.7988416
20
216.5156396
40
3.0742781
50
135.6209563
51
138.8377529
0
ARC
8
right_labelLayer
10
150.7180166
20
216.5945291
40
2.9615112
50
138.9575743
51
174.5422303
0
ARC
8
right_labelLayer
10
151.6825373
20
216.4436104
40
3.9364483
50
173.6907646
51
180.0882507
0
ARC
8
right_labelLayer
10
151.5461586
20
216.6706161
40
4.3795989
50
139.4139392
51
150.6032715
0
ARC
8
right_labelLayer
10
150.7608853
20
217.3435128
40
3.3454596
50
124.2321394
51
139.4161176
0
ARC
8
right_labelLayer
10
150.3410144
20
217.9773072
40
2.5852804
50
89.6796567
51
124.4405686
0
LINE
8
right_labelLayer
10
154.2773437
20
220.4062972
11
154.2773437
21
211.8437972
0
LINE
8
right_labelLayer
10
154.2773437
20
211.8437972
11
152.9804687
21
211.8437972
0
LINE
8
right_labelLayer
10
152.9804687
20
211.8437972
11
152.9804687
21
220.4062972
0
LINE
8
right_labelLayer
10
152.9804687
20
220.4062972
11
154.2773437
21
220.4062972
0
ARC
8
right_labelLayer
10
154.3081669
20
222.7354996
40
1.4371007
50
170.8451929
51
180.3544315
0
ARC
8
right_labelLayer
10
153.7701749
20
222.8254528
40
0.8916556
50
155.9678998
51
171.0515555
0
ARC
8
right_labelLayer
10
153.5095949
20
222.9410573
40
0.6065839
50
133.7879925
51
155.9171675
0
ARC
8
right_labelLayer
10
153.6057995
20
222.8346989
40
0.7499489
50
92.6445887
51
133.4710399
0
ARC
8
right_labelLayer
10
153.6361844
20
222.5960776
40
0.9899071
50
89.9690735
51
93.7642022
0
ARC
8
right_labelLayer
10
153.6485596
20
222.8219743
40
0.7641022
50
46.3708172
51
90.8879144
0
ARC
8
right_labelLayer
10
153.7246062
20
222.9004823
40
0.6548059
50
17.7251796
51
46.4473337
0
ARC
8
right_labelLayer
10
153.3699893
20
222.7783644
40
1.0298013
50
4.9427697
51
18.1901489
0
ARC
8
right_labelLayer
10
152.9188279
20
222.7295911
40
1.483519
50
359.8848562
51
5.3181586
0
ARC
8
right_labelLayer
10
153.0605614
20
222.7174979
40
1.3418133
50
349.8344934
51
0.3890796
0
ARC
8
right_labelLayer
10
153.5490648
20
222.6263685
40
0.8449019
50
332.6321368
51
350.0706105
0
ARC
8
right_labelLayer
10
153.7391968
20
222.5324804
40
0.6329031
50
313.6152591
51
332.2678043
0
ARC
8
right_labelLayer
10
153.6475614
20
222.6159169
40
0.7565724
50
269.1788465
51
314.2807503
0
ARC
8
right_labelLayer
10
153.6281238
20
222.6831763
40
0.8237989
50
250.5000121
51
270.5977978
0
ARC
8
right_labelLayer
10
153.6031927
20
222.5899514
40
0.7276391
50
225.1300958
51
249.9001432
0
ARC
8
right_labelLayer
10
153.5641581
20
222.5468322
40
0.6695468
50
197.7933368
51
224.8942189
0
ARC
8
right_labelLayer
10
153.9294965
20
222.672029
40
1.0556946
50
184.9925847
51
198.2039809
0
ARC
8
right_labelLayer
10
154.4022404
20
222.7234176
40
1.5311501
50
179.8805501
51
185.3687451
0
LINE
8
right_labelLayer
10
161.0742187
20
220.4062972
11
164.0351562
21
220.4062972
0
LINE
8
right_labelLayer
10
164.0351562
20
220.4062972
11
164.0351562
21
219.5859847
0
LINE
8
right_labelLayer
10
164.0351562
20
219.5859847
11
162.4492187
21
219.3984847
0
LINE
8
right_labelLayer
10
159.5273437
20
213.2031722
11
161.0429687
21
213.2031722
0
LINE
8
right_labelLayer
10
160.6289062
20
212.0391097
11
159.0742187
21
212.0391097
0
ARC
8
right_labelLayer
10
160.7965438
20
218.090578
40
2.1075944
50
29.4584503
51
38.3576618
0
ARC
8
right_labelLayer
10
159.9353363
20
217.5989478
40
3.0992419
50
23.1845468
51
29.5422589
0
ARC
8
right_labelLayer
10
159.1137129
20
217.2345829
40
3.997977
50
21.2506013
51
23.3489421
0
ARC
8
right_labelLayer
10
160.5103557
20
217.7900321
40
2.4950053
50
6.8504661
51
20.9871833
0
ARC
8
right_labelLayer
10
159.8076721
20
217.6947585
40
3.2040547
50
359.8710468
51
7.043209
0
ARC
8
right_labelLayer
10
160.0388561
20
217.6566341
40
2.9730234
50
342.5649681
51
0.5957656
0
ARC
8
right_labelLayer
10
160.5871686
20
217.5052245
40
2.4046177
50
310.6097915
51
342.0923649
0
ARC
8
right_labelLayer
10
160.2796934
20
217.8628758
40
2.8762692
50
284.9315958
51
310.6222661
0
ARC
8
right_labelLayer
10
159.894926
20
219.2111523
40
4.2782306
50
272.5334874
51
285.257981
0
ARC
8
right_labelLayer
10
159.7959975
20
220.5624296
40
5.6326958
50
269.9691918
51
272.9312255
0
ARC
8
right_labelLayer
10
159.7837217
20
219.0976939
40
4.1679694
50
263.4836818
51
270.1271167
0
ARC
8
right_labelLayer
10
159.7158285
20
218.4528333
40
3.5195747
50
259.4963872
51
263.3904314
0
ARC
8
right_labelLayer
10
160.1360125
20
212.9432613
40
2.3077474
50
117.3935386
51
128.4095155
0
ARC
8
right_labelLayer
10
159.5418999
20
213.6803012
40
1.3611225
50
128.0881541
51
147.1400821
0
ARC
8
right_labelLayer
10
159.2218386
20
213.8950864
40
0.9757549
50
147.5369311
51
180.2591968
0
ARC
8
right_labelLayer
10
158.9181982
20
213.8823655
40
0.6721558
50
179.2919037
51
198.3580538
0
ARC
8
right_labelLayer
10
158.7923489
20
213.8492907
40
0.542357
50
199.2291328
51
239.5690824
0
ARC
8
right_labelLayer
10
158.89664
20
213.9933755
40
0.7196154
50
238.2197804
51
239.8457862
0
ARC
8
right_labelLayer
10
158.9799393
20
214.1647152
40
0.9097208
50
240.7302085
51
254.5027038
0
ARC
8
right_labelLayer
10
159.2282352
20
215.0203392
40
1.8006114
50
254.1637543
51
262.2122782
0
ARC
8
right_labelLayer
10
159.4249069
20
216.3940342
40
3.1882982
50
262.0556165
51
267.208298
0
ARC
8
right_labelLayer
10
159.5199076
20
218.1365818
40
4.933415
50
267.0919627
51
270.0863618
0
ARC
8
right_labelLayer
10
161.0713167
20
207.8945827
40
5.3086652
50
81.5744238
51
90.3059577
0
ARC
8
right_labelLayer
10
161.3625093
20
209.793685
40
3.3874073
50
68.3671507
51
81.7399229
0
ARC
8
right_labelLayer
10
161.7428324
20
210.7656539
40
2.3436946
50
52.1879889
51
68.250086
0
ARC
8
right_labelLayer
10
162.0089568
20
211.1242404
40
1.8972723
50
8.6201351
51
51.89825
0
ARC
8
right_labelLayer
10
161.0762671
20
210.9268894
40
2.8495428
50
359.7430385
51
9.7326771
0
ARC
8
right_labelLayer
10
161.1180204
20
210.8788164
40
2.8079827
50
340.526895
51
0.7201648
0
ARC
8
right_labelLayer
10
161.5305815
20
210.7760948
40
2.385124
50
302.9903657
51
339.5494486
0
ARC
8
right_labelLayer
10
161.0968278
20
211.3274373
40
3.0844033
50
303.1871841
51
304.1720914
0
ARC
8
right_labelLayer
10
160.6938786
20
212.0252533
40
3.8892184
50
286.2542334
51
302.5279886
0
ARC
8
right_labelLayer
10
159.9593661
20
214.4480175
40
6.4207897
50
276.4939817
51
286.4953634
0
ARC
8
right_labelLayer
10
159.5010716
20
218.2790928
40
10.27914
50
269.754519
51
276.616965
0
ARC
8
right_labelLayer
10
159.4228045
20
215.2660136
40
7.266047
50
262.5634723
51
270.2698931
0
ARC
8
right_labelLayer
10
159.0669263
20
212.6282606
40
4.6044344
50
251.2101967
51
262.7064032
0
ARC
8
right_labelLayer
10
158.5539897
20
211.1227131
40
3.0139072
50
235.9668198
51
251.2228927
0
ARC
8
right_labelLayer
10
158.0103184
20
210.3471061
40
2.0669386
50
208.9036318
51
236.4231403
0
ARC
8
right_labelLayer
10
158.0602294
20
210.3261833
40
2.1009483
50
182.2079869
51
207.7461442
0
ARC
8
right_labelLayer
10
158.6955548
20
210.3896418
40
2.7385237
50
179.9784403
51
183.0225986
0
ARC
8
right_labelLayer
10
157.9397103
20
210.4254623
40
1.9829843
50
138.3916098
51
181.0052659
0
ARC
8
right_labelLayer
10
158.1491178
20
210.2372671
40
2.2645275
50
113.8121522
51
138.3496162
0
ARC
8
right_labelLayer
10
158.546334
20
209.3795116
40
3.209683
50
102.2870796
51
114.1172833
0
ARC
8
right_labelLayer
10
158.4215194
20
213.7404376
40
1.3459867
50
216.5861569
51
245.496887
0
ARC
8
right_labelLayer
10
158.6140814
20
213.9038198
40
1.5980715
50
215.4650037
51
217.1747538
0
ARC
8
right_labelLayer
10
158.2932597
20
213.6720951
40
1.2023267
50
182.176738
51
215.341565
0
ARC
8
right_labelLayer
10
158.578807
20
213.7027444
40
1.4889633
50
179.9835356
51
182.9379593
0
ARC
8
right_labelLayer
10
158.5728419
20
213.7157087
40
1.4830512
50
161.7226054
51
180.4843365
0
ARC
8
right_labelLayer
10
158.4097847
20
213.7602003
40
1.3142969
50
144.4963456
51
161.3350191
0
ARC
8
right_labelLayer
10
158.8444611
20
213.4362386
40
1.8563345
50
132.7259622
51
144.1478835
0
ARC
8
right_labelLayer
10
159.5410741
20
212.6923387
40
2.875464
50
125.2212378
51
132.8655697
0
ARC
8
right_labelLayer
10
160.241454
20
211.7197763
40
4.0739299
50
121.235226
51
125.3794755
0
ARC
8
right_labelLayer
10
158.9998718
20
217.3032541
40
2.273527
50
215.1640816
51
247.4747799
0
ARC
8
right_labelLayer
10
159.4242324
20
217.6457383
40
2.8179126
50
212.4714458
51
215.8876443
0
ARC
8
right_labelLayer
10
159.3126631
20
217.5659132
40
2.6809398
50
183.0160878
51
212.3123137
0
ARC
8
right_labelLayer
10
159.9009668
20
217.6314828
40
3.2720607
50
179.9758883
51
183.6206412
0
ARC
8
right_labelLayer
10
160.3756656
20
217.6645064
40
3.7468931
50
166.8195799
51
180.4839318
0
ARC
8
right_labelLayer
10
159.1326701
20
217.9783361
40
2.4651825
50
132.3287668
51
167.3340932
0
ARC
8
right_labelLayer
10
159.2989662
20
217.7392997
40
2.7541439
50
106.2188878
51
131.5377583
0
ARC
8
right_labelLayer
10
159.7197248
20
216.3769186
40
4.1798918
50
93.6329621
51
106.5408733
0
ARC
8
right_labelLayer
10
159.8570887
20
214.8347394
40
5.7278113
50
89.9380554
51
94.0267682
0
ARC
8
right_labelLayer
10
159.8793263
20
215.591578
40
4.9709951
50
82.5852046
51
90.1849366
0
ARC
8
right_labelLayer
10
160.0312173
20
216.7667871
40
3.7860118
50
74.0088933
51
82.5694379
0
ARC
8
right_labelLayer
10
158.5094072
20
210.3885832
40
1.3024964
50
179.2207509
51
200.9355353
0
ARC
8
right_labelLayer
10
158.3545155
20
210.3527191
40
1.1452237
50
202.0287142
51
236.1457385
0
ARC
8
right_labelLayer
10
158.5878986
20
210.6490381
40
1.5215892
50
235.0634381
51
238.5043421
0
ARC
8
right_labelLayer
10
158.8593419
20
211.1338565
40
2.07691
50
239.1066155
51
254.4862901
0
ARC
8
right_labelLayer
10
159.2211812
20
212.3814711
40
3.3758836
50
254.23242
51
263.493734
0
ARC
8
right_labelLayer
10
159.4484706
20
214.3065962
40
5.31437
50
263.4108694
51
270.1457266
0
ARC
8
right_labelLayer
10
159.4727768
20
215.7596661
40
6.7674314
50
269.9086509
51
269.9989793
0
ARC
8
right_labelLayer
10
159.5037351
20
217.7104715
40
8.7182921
50
269.7957526
51
275.399099
0
ARC
8
right_labelLayer
10
159.8300386
20
214.3606521
40
5.3526404
50
275.2956694
51
283.3516212
0
ARC
8
right_labelLayer
10
160.3616399
20
212.1710973
40
3.0995274
50
283.1370677
51
295.8572972
0
ARC
8
right_labelLayer
10
160.7555665
20
211.3111115
40
2.1539354
50
296.4047126
51
301.8009312
0
ARC
8
right_labelLayer
10
160.9099833
20
211.0982769
40
1.8917739
50
301.2230791
51
318.6238183
0
ARC
8
right_labelLayer
10
161.2583125
20
210.7765111
40
1.4177497
50
319.076571
51
1.1406841
0
ARC
8
right_labelLayer
10
160.9211934
20
210.8186339
40
1.7546429
50
359.5461357
51
10.9904663
0
ARC
8
right_labelLayer
10
161.5989561
20
210.9564899
40
1.0630471
50
10.6608729
51
30.9361845
0
ARC
8
right_labelLayer
10
161.8138489
20
211.0757479
40
0.8174573
50
31.5095576
51
58.0777843
0
ARC
8
right_labelLayer
10
161.612437
20
210.7151094
40
1.2302138
50
58.9972938
51
73.8585538
0
ARC
8
right_labelLayer
10
161.2053507
20
209.3824247
40
2.6236161
50
73.4100051
51
81.5907063
0
ARC
8
right_labelLayer
10
160.8604296
20
207.1503104
40
4.8821968
50
81.4172473
51
86.5756881
0
ARC
8
right_labelLayer
10
160.6490577
20
203.7872833
40
8.2518511
50
86.5054136
51
90.1399198
0
ARC
8
right_labelLayer
10
159.0556705
20
209.0580318
40
2.9811356
50
89.6435107
51
100.0209151
0
ARC
8
right_labelLayer
10
158.8683008
20
210.0773054
40
1.9448212
50
99.8102765
51
116.8229441
0
ARC
8
right_labelLayer
10
158.6857787
20
210.4622181
40
1.5190009
50
117.2304074
51
130.5023697
0
ARC
8
right_labelLayer
10
158.592071
20
210.5826534
40
1.366581
50
130.7944675
51
169.0413539
0
ARC
8
right_labelLayer
10
159.2821654
20
210.4201329
40
2.0751804
50
168.258042
51
180.3820061
0
ARC
8
right_labelLayer
10
160.441551
20
217.6447475
40
2.5314689
50
179.5617623
51
191.6528991
0
ARC
8
right_labelLayer
10
159.5613873
20
217.4545849
40
1.6310585
50
191.3555142
51
213.3660418
0
ARC
8
right_labelLayer
10
159.350017
20
217.3325379
40
1.3874773
50
213.9574036
51
227.7971475
0
ARC
8
right_labelLayer
10
159.533914
20
217.5555765
40
1.6762873
50
228.2620793
51
254.7341324
0
ARC
8
right_labelLayer
10
159.7688549
20
218.3609601
40
2.5151544
50
254.4016616
51
267.4348652
0
ARC
8
right_labelLayer
10
159.8301488
20
219.1828995
40
3.3391029
50
267.0153825
51
270.0323008
0
ARC
8
right_labelLayer
10
159.8702124
20
218.6688433
40
2.825304
50
269.2256806
51
284.3773355
0
ARC
8
right_labelLayer
10
160.2552971
20
217.3272068
40
1.4306228
50
282.7796707
51
346.482841
0
ARC
8
right_labelLayer
10
159.1039949
20
217.6533216
40
2.626697
50
345.436203
51
0.7465812
0
ARC
8
right_labelLayer
10
158.9421573
20
217.7274248
40
2.7885965
50
359.1806304
51
15.0431588
0
ARC
8
right_labelLayer
10
160.2057212
20
218.0960192
40
1.472933
50
13.9535587
51
77.6673824
0
ARC
8
right_labelLayer
10
159.843192
20
216.7968647
40
2.8205822
50
76.1095214
51
90.702828
0
ARC
8
right_labelLayer
10
159.7889282
20
216.8961017
40
2.7212041
50
89.585933
51
101.3334316
0
ARC
8
right_labelLayer
10
159.5944607
20
217.8236205
40
1.7735754
50
101.0620341
51
121.9739369
0
ARC
8
right_labelLayer
10
159.4577899
20
218.0694781
40
1.4927134
50
122.5210462
51
134.9966636
0
ARC
8
right_labelLayer
10
159.5140639
20
218.0357619
40
1.5564268
50
135.5839955
51
163.0015957
0
ARC
8
right_labelLayer
10
160.3359731
20
217.7663688
40
2.4212471
50
162.5911911
51
175.7343166
0
ARC
8
right_labelLayer
10
161.3217514
20
217.6692564
40
3.411599
50
175.3393144
51
180.0864358
0
LINE
8
right_labelLayer
10
172.9492187
20
211.8437972
11
171.6523437
21
211.8437972
0
LINE
8
right_labelLayer
10
171.6523437
20
211.8437972
11
171.6523437
21
217.3828597
0
LINE
8
right_labelLayer
10
167.0898437
20
216.3203597
11
167.0898437
21
211.8437972
0
LINE
8
right_labelLayer
10
167.0898437
20
211.8437972
11
165.7929687
21
211.8437972
0
LINE
8
right_labelLayer
10
165.7929687
20
211.8437972
11
165.7929687
21
224.0000472
0
LINE
8
right_labelLayer
10
165.7929687
20
224.0000472
11
167.0898437
21
224.0000472
0
LINE
8
right_labelLayer
10
167.0898437
20
224.0000472
11
167.0898437
21
220.3203597
0
LINE
8
right_labelLayer
10
167.0273437
20
219.2187972
11
167.1054687
21
219.2187972
0
LINE
8
right_labelLayer
10
172.9492187
20
217.4297347
11
172.9492187
21
211.8437972
0
ARC
8
right_labelLayer
10
167.9864565
20
217.4038836
40
3.6659475
50
359.6714116
51
8.6877042
0
ARC
8
right_labelLayer
10
169.3451543
20
217.6193614
40
2.2903044
50
8.4931757
51
22.6579516
0
ARC
8
right_labelLayer
10
170.0354821
20
217.9062394
40
1.5427422
50
22.7024126
51
42.3419703
0
ARC
8
right_labelLayer
10
170.113074
20
217.941142
40
1.4621218
50
43.3790871
51
71.5385936
0
ARC
8
right_labelLayer
10
169.8229113
20
217.1303525
40
2.3231437
50
71.0827949
51
84.3691365
0
ARC
8
right_labelLayer
10
169.6926584
20
216.0229136
40
3.4380831
50
84.019775
51
90.1510624
0
ARC
8
right_labelLayer
10
169.655644
20
215.5365547
40
3.9245296
50
89.5919476
51
100.3595233
0
ARC
8
right_labelLayer
10
169.3777499
20
216.9969205
40
2.4380212
50
100.1067709
51
118.0847553
0
ARC
8
right_labelLayer
10
169.0951111
20
217.5515243
40
1.8156989
50
118.455102
51
139.6706198
0
ARC
8
right_labelLayer
10
169.3788632
20
217.3575747
40
2.1578307
50
140.6208173
51
160.504905
0
ARC
8
right_labelLayer
10
170.8745556
20
216.8038746
40
3.7526286
50
160.1567147
51
171.5312662
0
ARC
8
right_labelLayer
10
173.2945992
20
216.4204475
40
6.2027942
50
171.3202239
51
178.3406613
0
ARC
8
right_labelLayer
10
175.4594264
20
216.3237197
40
8.3695834
50
178.1079017
51
180.0230012
0
ARC
8
right_labelLayer
10
155.4236682
20
220.3064532
40
11.6661838
50
357.8673888
51
0.0682986
0
ARC
8
right_labelLayer
10
159.3868423
20
220.1552436
40
7.7001288
50
354.9828242
51
357.8943641
0
ARC
8
right_labelLayer
10
162.0038286
20
219.9273649
40
5.0732409
50
351.9713841
51
354.9618031
0
ARC
8
right_labelLayer
10
169.302156
20
217.844693
40
2.591061
50
119.8316015
51
147.9725895
0
ARC
8
right_labelLayer
10
169.6159366
20
217.3626548
40
3.1654817
50
116.6658266
51
120.4182537
0
ARC
8
right_labelLayer
10
169.674488
20
217.2088316
40
3.3292632
50
96.6652506
51
116.3782524
0
ARC
8
right_labelLayer
10
169.800712
20
216.3379553
40
4.2089742
50
89.8927082
51
96.9959023
0
ARC
8
right_labelLayer
10
169.8410764
20
215.2854172
40
5.2616053
50
80.6863017
51
90.3537198
0
ARC
8
right_labelLayer
10
170.1686974
20
217.2124381
40
3.3069859
50
65.6022778
51
80.8843931
0
ARC
8
right_labelLayer
10
170.5621156
20
218.0985005
40
2.337553
50
46.7400626
51
65.4130959
0
ARC
8
right_labelLayer
10
170.588853
20
218.1829223
40
2.2580756
50
19.220418
51
45.7660846
0
ARC
8
right_labelLayer
10
169.2868274
20
217.7002503
40
3.6465232
50
6.4733797
51
19.6468024
0
ARC
8
right_labelLayer
10
167.3412945
20
217.4498481
40
5.6079603
50
359.7945043
51
6.7744037
0
LINE
8
right_labelLayer
10
179.5507812
20
212.9141097
11
179.5507812
21
211.9219222
0
LINE
8
right_labelLayer
10
175.7070312
20
214.3047347
11
175.7070312
21
219.3984847
0
LINE
8
right_labelLayer
10
175.7070312
20
219.3984847
11
174.4804687
21
219.3984847
0
LINE
8
right_labelLayer
10
174.4804687
20
219.3984847
11
174.4804687
21
220.0234847
0
LINE
8
right_labelLayer
10
174.4804687
20
220.0234847
11
175.7070312
21
220.5625472
0
LINE
8
right_labelLayer
10
175.7070312
20
220.5625472
11
176.2539062
21
222.3906722
0
LINE
8
right_labelLayer
10
176.2539062
20
222.3906722
11
177.0039062
21
222.3906722
0
LINE
8
right_labelLayer
10
177.0039062
20
222.3906722
11
177.0039062
21
220.4062972
0
LINE
8
right_labelLayer
10
177.0039062
20
220.4062972
11
179.4882812
21
220.4062972
0
LINE
8
right_labelLayer
10
179.4882812
20
220.4062972
11
179.4882812
21
219.3984847
0
LINE
8
right_labelLayer
10
179.4882812
20
219.3984847
11
177.0039062
21
219.3984847
0
LINE
8
right_labelLayer
10
177.0039062
20
219.3984847
11
177.0039062
21
214.3594222
0
ARC
8
right_labelLayer
10
178.3878
20
217.0169667
40
4.2591162
50
269.8803567
51
278.3028318
0
ARC
8
right_labelLayer
10
178.428457
20
216.6850128
40
3.9247782
50
278.4153127
51
279.0079991
0
ARC
8
right_labelLayer
10
177.9503347
20
219.7392989
40
7.0162574
50
278.9590721
51
280.5103649
0
ARC
8
right_labelLayer
10
178.4059925
20
217.2944091
40
4.5292706
50
280.4846589
51
282.6269548
0
ARC
8
right_labelLayer
10
178.8053454
20
215.5202581
40
2.7107303
50
282.5876285
51
285.5795817
0
ARC
8
right_labelLayer
10
179.0047077
20
214.786932
40
1.9508101
50
285.7239904
51
286.255517
0
ARC
8
right_labelLayer
10
179.0055361
20
213.0751481
40
1.2756262
50
287.9888574
51
295.3047808
0
ARC
8
right_labelLayer
10
178.697861
20
214.0060175
40
2.2560173
50
283.3069695
51
288.1197178
0
ARC
8
right_labelLayer
10
178.3728274
20
215.3618649
40
3.6502763
50
280.0070407
51
283.3734265
0
ARC
8
right_labelLayer
10
178.1555988
20
216.5406625
40
4.8488964
50
279.1861309
51
280.1143916
0
ARC
8
right_labelLayer
10
178.0218963
20
217.3011653
40
5.6210002
50
275.5260636
51
279.2939685
0
ARC
8
right_labelLayer
10
178.1723196
20
215.7300519
40
4.0427032
50
270.8933019
51
275.5483393
0
ARC
8
right_labelLayer
10
178.1912236
20
215.01223
40
3.3246827
50
270.0031482
51
270.7604232
0
ARC
8
right_labelLayer
10
178.1390733
20
215.0743941
40
3.3872511
50
253.7848117
51
270.8852531
0
ARC
8
right_labelLayer
10
177.7377742
20
213.7058089
40
1.9610501
50
190.3817602
51
253.8772488
0
ARC
8
right_labelLayer
10
179.7831857
20
214.2588527
40
4.0764128
50
179.3550948
51
192.8477675
0
ARC
8
right_labelLayer
10
179.6153232
20
214.3430894
40
2.6114681
50
179.6416537
51
189.7506186
0
ARC
8
right_labelLayer
10
178.6934233
20
214.178655
40
1.6750477
50
189.5479202
51
205.787396
0
ARC
8
right_labelLayer
10
178.3145626
20
214.0039486
40
1.2579354
50
206.1294055
51
221.4084301
0
ARC
8
right_labelLayer
10
178.2720866
20
213.971718
40
1.2047661
50
221.5949113
51
262.3505133
0
ARC
8
right_labelLayer
10
178.3731184
20
214.4912558
40
1.7334058
50
261.3265906
51
270.1913121
0
LINE
8
bottom_outsideCutPath
10
209
20
163
11
209
21
136.5
0
LINE
8
bottom_outsideCutPath
10
209
20
136.5
11
206
21
136.5
0
LINE
8
bottom_outsideCutPath
10
206
20
136.5
11
206
21
115.5
0
LINE
8
bottom_outsideCutPath
10
206
20
115.5
11
209
21
115.5
0
LINE
8
bottom_outsideCutPath
10
209
20
115.5
11
209
21
94.5
0
LINE
8
bottom_outsideCutPath
10
209
20
94.5
11
209
21
89
0
LINE
8
bottom_outsideCutPath
10
209
20
89
11
234.5
21
89
0
LINE
8
bottom_outsideCutPath
10
234.5
20
89
11
234.5
21
86
0
LINE
8
bottom_outsideCutPath
10
234.5
20
86
11
255.5
21
86
0
LINE
8
bottom_outsideCutPath
10
255.5
20
86
11
255.5
21
89
0
LINE
8
bottom_outsideCutPath
10
255.5
20
89
11
276.5
21
89
0
LINE
8
bottom_outsideCutPath
10
276.5
20
89
11
276.5
21
86
0
LINE
8
bottom_outsideCutPath
10
276.5
20
86
11
297.5
21
86
0
LINE
8
bottom_outsideCutPath
10
297.5
20
86
11
297.5
21
89
0
LINE
8
bottom_outsideCutPath
10
297.5
20
89
11
318.5
21
89
0
LINE
8
bottom_outsideCutPath
10
318.5
20
89
11
323
21
89
0
LINE
8
bottom_outsideCutPath
10
323
20
89
11
323
21
115.5
0
LINE
8
bottom_outsideCutPath
10
323
20
115.5
11
326
21
115.5
0
LINE
8
bottom_outsideCutPath
10
326
20
115.5
11
326
21
136.5
0
LINE
8
bottom_outsideCutPath
10
326
20
136.5
11
323
21
136.5
0
LINE
8
bottom_outsideCutPath
10
323
20
136.5
11
323
21
157.5
0
LINE
8
bottom_outsideCutPath
10
323
20
157.5
11
323
21
163
0
LINE
8
bottom_outsideCutPath
10
323
20
163
11
297.5
21
163
0
LINE
8
bottom_outsideCutPath
10
297.5
20
163
11
297.5
21
166
0
LINE
8
bottom_outsideCutPath
10
297.5
20
166
11
276.5
21
166
0
LINE
8
bottom_outsideCutPath
10
276.5
20
166
11
276.5
21
163
0
LINE
8
bottom_outsideCutPath
10
276.5
20
163
11
255.5
21
163
0
LINE
8
bottom_outsideCutPath
10
255.5
20
163
11
255.5
21
166
0
LINE
8
bottom_outsideCutPath
10
255.5
20
166
11
234.5
21
166
0
LINE
8
bottom_outsideCutPath
10
234.5
20
166
11
234.5
21
163
0
LINE
8
bottom_outsideCutPath
10
234.5
20
163
11
213.5
21
163
0
LINE
8
bottom_outsideCutPath
10
213.5
20
163
11
209
21
163
0
LINE
8
bottom_labelLayer
10
240.9765246
20
121.1017646
11
240.8827746
21
121.1017646
0
LINE
8
bottom_labelLayer
10
240.8827746
20
121.1017646
11
240.6093371
21
120.0002021
0
LINE
8
bottom_labelLayer
10
240.6093371
20
120.0002021
11
239.6796496
21
120.0002021
0
LINE
8
bottom_labelLayer
10
239.6796496
20
120.0002021
11
239.6796496
21
132.1564521
0
LINE
8
bottom_labelLayer
10
239.6796496
20
132.1564521
11
240.9765246
21
132.1564521
0
LINE
8
bottom_labelLayer
10
240.9765246
20
132.1564521
11
240.9765246
21
129.2033271
0
LINE
8
bottom_labelLayer
10
240.9140246
20
127.4220771
11
240.9765246
21
127.4220771
0
ARC
8
bottom_labelLayer
10
243.7029291
20
124.7398169
40
3.9637012
50
74.2393355
51
90.5623777
0
ARC
8
bottom_labelLayer
10
243.9650226
20
125.7013182
40
2.9671715
50
38.5631327
51
74.0670403
0
ARC
8
bottom_labelLayer
10
243.2905372
20
125.1768673
40
3.8215107
50
16.4709337
51
38.4075242
0
ARC
8
bottom_labelLayer
10
241.34746
20
124.5675741
40
5.8576984
50
5.1338399
51
16.7973508
0
ARC
8
bottom_labelLayer
10
238.894431
20
124.3069978
40
8.3243
50
359.8779435
51
5.4093499
0
ARC
8
bottom_labelLayer
10
239.6149494
20
124.2444047
40
7.603895
50
350.6562921
51
0.3380242
0
ARC
8
bottom_labelLayer
10
242.2658045
20
123.7935244
40
4.9150291
50
335.8305902
51
350.8254897
0
ARC
8
bottom_labelLayer
10
243.4318603
20
123.2902374
40
3.645173
50
321.3161354
51
335.5436222
0
ARC
8
bottom_labelLayer
10
243.8776469
20
122.9269881
40
3.070154
50
274.0640117
51
321.4080996
0
ARC
8
bottom_labelLayer
10
243.6699704
20
124.2425017
40
4.3985534
50
269.9225498
51
275.5481397
0
ARC
8
bottom_labelLayer
10
243.6421554
20
123.7775949
40
3.9337035
50
255.7755313
51
270.3185353
0
ARC
8
bottom_labelLayer
10
243.5298992
20
123.2788549
40
3.4226987
50
245.9801827
51
255.5455802
0
ARC
8
bottom_labelLayer
10
243.3124667
20
122.773211
40
2.8723436
50
215.5850144
51
245.836166
0
ARC
8
bottom_labelLayer
10
213.9375334
20
129.1804742
40
27.0390009
50
358.1123208
51
0.0484255
0
ARC
8
bottom_labelLayer
10
221.4631722
20
128.9278128
40
19.509124
50
355.7238617
51
358.125912
0
ARC
8
bottom_labelLayer
10
224.8315797
20
128.695913
40
16.1328142
50
355.4712507
51
355.6531662
0
ARC
8
bottom_labelLayer
10
243.39514
20
125.7355119
40
2.9485933
50
95.1835142
51
145.1109036
0
ARC
8
bottom_labelLayer
10
243.6543117
20
124.274015
40
4.4293229
50
89.8743571
51
96.8145377
0
ARC
8
bottom_labelLayer
10
243.4493748
20
123.9731521
40
3.6443387
50
89.5731496
51
100.7324069
0
ARC
8
bottom_labelLayer
10
243.1795923
20
125.3361943
40
2.2549278
50
100.4469488
51
119.6700771
0
ARC
8
bottom_labelLayer
10
242.929424
20
125.8039146
40
1.7247538
50
120.1403097
51
142.4248986
0
ARC
8
bottom_labelLayer
10
243.3433057
20
125.530118
40
2.2200212
50
143.3382198
51
161.2559897
0
ARC
8
bottom_labelLayer
10
245.0740893
20
124.9156304
40
4.0565517
50
160.8926173
51
171.2334205
0
ARC
8
bottom_labelLayer
10
247.963432
20
124.4495112
40
6.9832099
50
171.066774
51
177.8456894
0
ARC
8
bottom_labelLayer
10
250.9683168
20
124.2966869
40
9.9917947
50
177.6176947
51
180.0425612
0
ARC
8
bottom_labelLayer
10
249.5512608
20
124.2557796
40
8.5748015
50
179.7762566
51
185.7075354
0
ARC
8
bottom_labelLayer
10
246.1705422
20
123.9074453
40
5.1762112
50
185.5924958
51
194.2050777
0
ARC
8
bottom_labelLayer
10
244.0048681
20
123.3453766
40
2.9388586
50
193.9430359
51
208.0218247
0
ARC
8
bottom_labelLayer
10
243.1286371
20
122.8996165
40
1.9560119
50
208.553694
51
217.5605201
0
ARC
8
bottom_labelLayer
10
243.0572371
20
122.8699159
40
1.8814131
50
218.1690368
51
253.8047259
0
ARC
8
bottom_labelLayer
10
243.4062019
20
123.9458056
40
3.0121421
50
253.1382275
51
266.8483353
0
ARC
8
bottom_labelLayer
10
243.5040591
20
125.0998401
40
4.1699521
50
266.3775733
51
270.0510514
0
ARC
8
bottom_labelLayer
10
243.5354389
20
123.5150488
40
2.5853072
50
269.3868901
51
285.8630675
0
ARC
8
bottom_labelLayer
10
243.7275107
20
122.820875
40
1.865075
50
286.0162924
51
326.8497277
0
ARC
8
bottom_labelLayer
10
242.8004699
20
123.4350049
40
2.9770675
50
326.7105112
51
343.6661763
0
ARC
8
bottom_labelLayer
10
241.0651127
20
123.9652732
40
4.7915591
50
343.4171428
51
353.6369302
0
ARC
8
bottom_labelLayer
10
238.444034
20
124.2762844
40
7.4309831
50
353.4934758
51
0.2205584
0
ARC
8
bottom_labelLayer
10
238.2129483
20
124.335902
40
7.6620766
50
359.7680941
51
6.3095149
0
ARC
8
bottom_labelLayer
10
241.0991115
20
124.6671044
40
4.7570119
50
6.164876
51
16.0396504
0
ARC
8
bottom_labelLayer
10
242.9583138
20
125.2150108
40
2.8188287
50
15.7779603
51
32.0151253
0
ARC
8
bottom_labelLayer
10
243.5381731
20
125.547088
40
2.1512681
50
32.7032831
51
35.5242599
0
ARC
8
bottom_labelLayer
10
243.7501264
20
125.6977357
40
1.8912323
50
35.5408432
51
79.8011227
0
ARC
8
bottom_labelLayer
10
243.4961534
20
124.6180448
40
2.9994091
50
78.6781377
51
90.374958
0
ARC
8
bottom_labelLayer
10
250.1762177
20
124.244104
40
6.6988966
50
349.1762012
51
0.3862631
0
ARC
8
bottom_labelLayer
10
252.4315834
20
123.7944937
40
4.3992605
50
330.2507006
51
349.4116472
0
ARC
8
bottom_labelLayer
10
253.1256786
20
123.4337271
40
3.6177637
50
318.1439573
51
329.7566506
0
ARC
8
bottom_labelLayer
10
253.2509397
20
123.3333428
40
3.4574948
50
278.8959168
51
317.9979082
0
ARC
8
bottom_labelLayer
10
252.9281602
20
124.8798023
40
5.035898
50
269.7502859
51
279.8033344
0
ARC
8
bottom_labelLayer
10
252.8758116
20
124.0084694
40
4.1646282
50
253.5436888
51
270.4182458
0
ARC
8
bottom_labelLayer
10
252.7371838
20
123.4722162
40
3.6111209
50
238.8115736
51
253.2428111
0
ARC
8
bottom_labelLayer
10
252.6924376
20
123.3822315
40
3.5109796
50
207.794703
51
238.6757998
0
ARC
8
bottom_labelLayer
10
253.3346711
20
123.7755442
40
4.2627938
50
205.6560831
51
208.4460268
0
ARC
8
bottom_labelLayer
10
253.8289512
20
123.9814741
40
4.7975876
50
188.9102511
51
205.3171429
0
ARC
8
bottom_labelLayer
10
255.4954559
20
124.2637272
40
6.4877316
50
179.7744682
51
189.0932982
0
ARC
8
bottom_labelLayer
10
255.7413023
20
124.334873
40
6.7336821
50
169.2442988
51
180.3880767
0
ARC
8
bottom_labelLayer
10
253.4545975
20
124.7868714
40
4.4028317
50
150.7111575
51
169.469544
0
ARC
8
bottom_labelLayer
10
252.7246178
20
125.1617403
40
3.5829056
50
138.1759663
51
150.2287244
0
ARC
8
bottom_labelLayer
10
252.6031801
20
125.254929
40
3.4302876
50
99.175932
51
137.9832767
0
ARC
8
bottom_labelLayer
10
252.9373963
20
123.6820692
40
5.0369378
50
89.7326461
51
100.0759793
0
ARC
8
bottom_labelLayer
10
253.0041927
20
124.3613328
40
4.3578344
50
73.5222869
51
90.5692168
0
ARC
8
bottom_labelLayer
10
253.2597534
20
125.2898578
40
3.3950052
50
41.1445676
51
73.2133749
0
ARC
8
bottom_labelLayer
10
252.7719095
20
124.8705623
40
4.0382607
50
13.5014391
51
41.0703471
0
ARC
8
bottom_labelLayer
10
250.8871318
20
124.3773401
40
5.9862338
50
1.1277169
51
13.8800126
0
ARC
8
bottom_labelLayer
10
249.2643613
20
124.290348
40
7.6106009
50
359.9918443
51
1.5420649
0
ARC
8
bottom_labelLayer
10
256.9187851
20
124.2555604
40
6.567347
50
179.7059517
51
187.9160706
0
ARC
8
bottom_labelLayer
10
254.510106
20
123.9095588
40
4.1339827
50
187.7639522
51
200.0976598
0
ARC
8
bottom_labelLayer
10
253.1831386
20
123.423357
40
2.7207473
50
200.0845656
51
216.9131853
0
ARC
8
bottom_labelLayer
10
252.6985921
20
123.0773666
40
2.1255753
50
217.3009467
51
261.7099208
0
ARC
8
bottom_labelLayer
10
252.9235377
20
124.1507745
40
3.2209149
50
260.5033005
51
270.2476987
0
ARC
8
bottom_labelLayer
10
252.9664736
20
123.9420609
40
3.0123109
50
269.4481787
51
284.7255674
0
ARC
8
bottom_labelLayer
10
253.2049415
20
123.0576612
40
2.096352
50
284.5662212
51
322.6333896
0
ARC
8
bottom_labelLayer
10
252.6473923
20
123.4604656
40
2.7840014
50
323.0089322
51
342.6390441
0
ARC
8
bottom_labelLayer
10
251.05269
20
123.9816597
40
4.4616269
50
342.3615742
51
353.7537649
0
ARC
8
bottom_labelLayer
10
248.6999694
20
124.2652499
40
6.8312849
50
353.5363074
51
0.2014182
0
ARC
8
bottom_labelLayer
10
249.0604344
20
124.3222902
40
6.470862
50
359.707576
51
7.8972758
0
ARC
8
bottom_labelLayer
10
251.4302482
20
124.6620252
40
4.0768595
50
7.7439955
51
20.0690237
0
ARC
8
bottom_labelLayer
10
252.7508041
20
125.1466214
40
2.6701986
50
20.0256779
51
37.4350666
0
ARC
8
bottom_labelLayer
10
253.1889465
20
125.4575209
40
2.1333995
50
37.957772
51
80.4006157
0
ARC
8
bottom_labelLayer
10
252.9399602
20
124.3465602
40
3.2708796
50
79.3453667
51
90.3174619
0
ARC
8
bottom_labelLayer
10
252.893859
20
124.5311027
40
3.0864138
50
89.480611
51
103.8805101
0
ARC
8
bottom_labelLayer
10
252.6345196
20
125.5186646
40
2.0655291
50
103.468519
51
142.3118967
0
ARC
8
bottom_labelLayer
10
253.1386976
20
125.1640909
40
2.6814262
50
142.9025851
51
162.3749443
0
ARC
8
bottom_labelLayer
10
254.7273383
20
124.6346804
40
4.3558556
50
162.0653062
51
173.1675044
0
ARC
8
bottom_labelLayer
10
257.204489
20
124.3187326
40
6.8530279
50
173.0086135
51
180.2463718
0
LINE
8
bottom_labelLayer
10
263.0858996
20
121.0705146
11
263.0858996
21
120.0783271
0
LINE
8
bottom_labelLayer
10
259.2421496
20
122.4611396
11
259.2421496
21
127.5548896
0
LINE
8
bottom_labelLayer
10
259.2421496
20
127.5548896
11
258.0155871
21
127.5548896
0
LINE
8
bottom_labelLayer
10
258.0155871
20
127.5548896
11
258.0155871
21
128.1798896
0
LINE
8
bottom_labelLayer
10
258.0155871
20
128.1798896
11
259.2421496
21
128.7189521
0
LINE
8
bottom_labelLayer
10
259.2421496
20
128.7189521
11
259.7890246
21
130.5470771
0
LINE
8
bottom_labelLayer
10
259.7890246
20
130.5470771
11
260.5390246
21
130.5470771
0
LINE
8
bottom_labelLayer
10
260.5390246
20
130.5470771
11
260.5390246
21
128.5627021
0
LINE
8
bottom_labelLayer
10
260.5390246
20
128.5627021
11
263.0233996
21
128.5627021
0
LINE
8
bottom_labelLayer
10
263.0233996
20
128.5627021
11
263.0233996
21
127.5548896
0
LINE
8
bottom_labelLayer
10
263.0233996
20
127.5548896
11
260.5390246
21
127.5548896
0
LINE
8
bottom_labelLayer
10
260.5390246
20
127.5548896
11
260.5390246
21
122.5158271
0
ARC
8
bottom_labelLayer
10
261.9229184
20
125.1733716
40
4.2591162
50
269.8803567
51
278.3028318
0
ARC
8
bottom_labelLayer
10
261.9635754
20
124.8414177
40
3.9247782
50
278.4153127
51
279.0079991
0
ARC
8
bottom_labelLayer
10
261.4854531
20
127.8957038
40
7.0162574
50
278.9590721
51
280.5103649
0
ARC
8
bottom_labelLayer
10
261.9411109
20
125.450814
40
4.5292706
50
280.4846589
51
282.6269548
0
ARC
8
bottom_labelLayer
10
262.3404638
20
123.676663
40
2.7107303
50
282.5876285
51
285.5795817
0
ARC
8
bottom_labelLayer
10
262.5398261
20
122.9433369
40
1.9508101
50
285.7239904
51
286.255517
0
ARC
8
bottom_labelLayer
10
262.5406545
20
121.2315531
40
1.2756262
50
287.9888574
51
295.3047808
0
ARC
8
bottom_labelLayer
10
262.2329794
20
122.1624224
40
2.2560173
50
283.3069695
51
288.1197178
0
ARC
8
bottom_labelLayer
10
261.9079458
20
123.5182698
40
3.6502763
50
280.0070407
51
283.3734265
0
ARC
8
bottom_labelLayer
10
261.6907172
20
124.6970674
40
4.8488964
50
279.1861309
51
280.1143916
0
ARC
8
bottom_labelLayer
10
261.5570147
20
125.4575702
40
5.6210002
50
275.5260636
51
279.2939685
0
ARC
8
bottom_labelLayer
10
261.707438
20
123.8864569
40
4.0427032
50
270.8933019
51
275.5483393
0
ARC
8
bottom_labelLayer
10
261.726342
20
123.1686349
40
3.3246827
50
270.0031482
51
270.7604232
0
ARC
8
bottom_labelLayer
10
261.6741917
20
123.230799
40
3.3872511
50
253.7848117
51
270.8852531
0
ARC
8
bottom_labelLayer
10
261.2728926
20
121.8622138
40
1.9610501
50
190.3817602
51
253.8772488
0
ARC
8
bottom_labelLayer
10
263.3183042
20
122.4152577
40
4.0764128
50
179.3550948
51
192.8477675
0
ARC
8
bottom_labelLayer
10
263.1504416
20
122.4994943
40
2.6114681
50
179.6416537
51
189.7506186
0
ARC
8
bottom_labelLayer
10
262.2285417
20
122.3350599
40
1.6750477
50
189.5479202
51
205.787396
0
ARC
8
bottom_labelLayer
10
261.849681
20
122.1603536
40
1.2579354
50
206.1294055
51
221.4084301
0
ARC
8
bottom_labelLayer
10
261.807205
20
122.1281229
40
1.2047661
50
221.5949113
51
262.3505133
0
ARC
8
bottom_labelLayer
10
261.9082368
20
122.6476607
40
1.7334058
50
261.3265906
51
270.1913121
0
LINE
8
bottom_labelLayer
10
268.7343371
20
121.0705146
11
268.7343371
21
120.0783271
0
LINE
8
bottom_labelLayer
10
264.8905871
20
122.4611396
11
264.8905871
21
127.5548896
0
LINE
8
bottom_labelLayer
10
264.8905871
20
127.5548896
11
263.6640246
21
127.5548896
0
LINE
8
bottom_labelLayer
10
263.6640246
20
127.5548896
11
263.6640246
21
128.1798896
0
LINE
8
bottom_labelLayer
10
263.6640246
20
128.1798896
11
264.8905871
21
128.7189521
0
LINE
8
bottom_labelLayer
10
264.8905871
20
128.7189521
11
265.4374621
21
130.5470771
0
LINE
8
bottom_labelLayer
10
265.4374621
20
130.5470771
11
266.1874621
21
130.5470771
0
LINE
8
bottom_labelLayer
10
266.1874621
20
130.5470771
11
266.1874621
21
128.5627021
0
LINE
8
bottom_labelLayer
10
266.1874621
20
128.5627021
11
268.6718371
21
128.5627021
0
LINE
8
bottom_labelLayer
10
268.6718371
20
128.5627021
11
268.6718371
21
127.5548896
0
LINE
8
bottom_labelLayer
10
268.6718371
20
127.5548896
11
266.1874621
21
127.5548896
0
LINE
8
bottom_labelLayer
10
266.1874621
20
127.5548896
11
266.1874621
21
122.5158271
0
ARC
8
bottom_labelLayer
10
267.5713559
20
125.1733716
40
4.2591162
50
269.8803567
51
278.3028318
0
ARC
8
bottom_labelLayer
10
267.6120129
20
124.8414177
40
3.9247782
50
278.4153127
51
279.0079991
0
ARC
8
bottom_labelLayer
10
267.1338906
20
127.8957038
40
7.0162574
50
278.9590721
51
280.5103649
0
ARC
8
bottom_labelLayer
10
267.5895484
20
125.450814
40
4.5292706
50
280.4846589
51
282.6269548
0
ARC
8
bottom_labelLayer
10
267.9889013
20
123.676663
40
2.7107303
50
282.5876285
51
285.5795817
0
ARC
8
bottom_labelLayer
10
268.1882636
20
122.9433369
40
1.9508101
50
285.7239904
51
286.255517
0
ARC
8
bottom_labelLayer
10
268.189092
20
121.2315531
40
1.2756262
50
287.9888574
51
295.3047808
0
ARC
8
bottom_labelLayer
10
267.8814169
20
122.1624224
40
2.2560173
50
283.3069695
51
288.1197178
0
ARC
8
bottom_labelLayer
10
267.5563833
20
123.5182698
40
3.6502763
50
280.0070407
51
283.3734265
0
ARC
8
bottom_labelLayer
10
267.3391547
20
124.6970674
40
4.8488964
50
279.1861309
51
280.1143916
0
ARC
8
bottom_labelLayer
10
267.2054522
20
125.4575702
40
5.6210002
50
275.5260636
51
279.2939685
0
ARC
8
bottom_labelLayer
10
267.3558755
20
123.8864569
40
4.0427032
50
270.8933019
51
275.5483393
0
ARC
8
bottom_labelLayer
10
267.3747795
20
123.1686349
40
3.3246827
50
270.0031482
51
270.7604232
0
ARC
8
bottom_labelLayer
10
267.3226292
20
123.230799
40
3.3872511
50
253.7848117
51
270.8852531
0
ARC
8
bottom_labelLayer
10
266.9213301
20
121.8622138
40
1.9610501
50
190.3817602
51
253.8772488
0
ARC
8
bottom_labelLayer
10
268.9667417
20
122.4152577
40
4.0764128
50
179.3550948
51
192.8477675
0
ARC
8
bottom_labelLayer
10
268.7988791
20
122.4994943
40
2.6114681
50
179.6416537
51
189.7506186
0
ARC
8
bottom_labelLayer
10
267.8769792
20
122.3350599
40
1.6750477
50
189.5479202
51
205.787396
0
ARC
8
bottom_labelLayer
10
267.4981185
20
122.1603536
40
1.2579354
50
206.1294055
51
221.4084301
0
ARC
8
bottom_labelLayer
10
267.4556425
20
122.1281229
40
1.2047661
50
221.5949113
51
262.3505133
0
ARC
8
bottom_labelLayer
10
267.5566743
20
122.6476607
40
1.7334058
50
261.3265906
51
270.1913121
0
ARC
8
bottom_labelLayer
10
271.1371552
20
124.244104
40
6.6988966
50
349.1762012
51
0.3862631
0
ARC
8
bottom_labelLayer
10
273.3925209
20
123.7944937
40
4.3992605
50
330.2507006
51
349.4116472
0
ARC
8
bottom_labelLayer
10
274.0866161
20
123.4337271
40
3.6177637
50
318.1439573
51
329.7566506
0
ARC
8
bottom_labelLayer
10
274.2118772
20
123.3333428
40
3.4574948
50
278.8959168
51
317.9979082
0
ARC
8
bottom_labelLayer
10
273.8890977
20
124.8798023
40
5.035898
50
269.7502859
51
279.8033344
0
ARC
8
bottom_labelLayer
10
273.8367491
20
124.0084694
40
4.1646282
50
253.5436888
51
270.4182458
0
ARC
8
bottom_labelLayer
10
273.6981213
20
123.4722162
40
3.6111209
50
238.8115736
51
253.2428111
0
ARC
8
bottom_labelLayer
10
273.6533751
20
123.3822315
40
3.5109796
50
207.794703
51
238.6757998
0
ARC
8
bottom_labelLayer
10
274.2956086
20
123.7755442
40
4.2627938
50
205.6560831
51
208.4460268
0
ARC
8
bottom_labelLayer
10
274.7898887
20
123.9814741
40
4.7975876
50
188.9102511
51
205.3171429
0
ARC
8
bottom_labelLayer
10
276.4563934
20
124.2637272
40
6.4877316
50
179.7744682
51
189.0932982
0
ARC
8
bottom_labelLayer
10
276.7022398
20
124.334873
40
6.7336821
50
169.2442988
51
180.3880767
0
ARC
8
bottom_labelLayer
10
274.415535
20
124.7868714
40
4.4028317
50
150.7111575
51
169.469544
0
ARC
8
bottom_labelLayer
10
273.6855553
20
125.1617403
40
3.5829056
50
138.1759663
51
150.2287244
0
ARC
8
bottom_labelLayer
10
273.5641176
20
125.254929
40
3.4302876
50
99.175932
51
137.9832767
0
ARC
8
bottom_labelLayer
10
273.8983338
20
123.6820692
40
5.0369378
50
89.7326461
51
100.0759793
0
ARC
8
bottom_labelLayer
10
273.9651302
20
124.3613328
40
4.3578344
50
73.5222869
51
90.5692168
0
ARC
8
bottom_labelLayer
10
274.2206909
20
125.2898578
40
3.3950052
50
41.1445676
51
73.2133749
0
ARC
8
bottom_labelLayer
10
273.732847
20
124.8705623
40
4.0382607
50
13.5014391
51
41.0703471
0
ARC
8
bottom_labelLayer
10
271.8480693
20
124.3773401
40
5.9862338
50
1.1277169
51
13.8800126
0
ARC
8
bottom_labelLayer
10
270.2252988
20
124.290348
40
7.6106009
50
359.9918443
51
1.5420649
0
ARC
8
bottom_labelLayer
10
277.8797226
20
124.2555604
40
6.567347
50
179.7059517
51
187.9160706
0
ARC
8
bottom_labelLayer
10
275.4710435
20
123.9095588
40
4.1339827
50
187.7639522
51
200.0976598
0
ARC
8
bottom_labelLayer
10
274.1440761
20
123.423357
40
2.7207473
50
200.0845656
51
216.9131853
0
ARC
8
bottom_labelLayer
10
273.6595296
20
123.0773666
40
2.1255753
50
217.3009467
51
261.7099208
0
ARC
8
bottom_labelLayer
10
273.8844752
20
124.1507745
40
3.2209149
50
260.5033005
51
270.2476987
0
ARC
8
bottom_labelLayer
10
273.9274111
20
123.9420609
40
3.0123109
50
269.4481787
51
284.7255674
0
ARC
8
bottom_labelLayer
10
274.165879
20
123.0576612
40
2.096352
50
284.5662212
51
322.6333896
0
ARC
8
bottom_labelLayer
10
273.6083298
20
123.4604656
40
2.7840014
50
323.0089322
51
342.6390441
0
ARC
8
bottom_labelLayer
10
272.0136275
20
123.9816597
40
4.4616269
50
342.3615742
51
353.7537649
0
ARC
8
bottom_labelLayer
10
269.6609069
20
124.2652499
40
6.8312849
50
353.5363074
51
0.2014182
0
ARC
8
bottom_labelLayer
10
270.0213719
20
124.3222902
40
6.470862
50
359.707576
51
7.8972758
0
ARC
8
bottom_labelLayer
10
272.3911857
20
124.6620252
40
4.0768595
50
7.7439955
51
20.0690237
0
ARC
8
bottom_labelLayer
10
273.7117416
20
125.1466214
40
2.6701986
50
20.0256779
51
37.4350666
0
ARC
8
bottom_labelLayer
10
274.149884
20
125.4575209
40
2.1333995
50
37.957772
51
80.4006157
0
ARC
8
bottom_labelLayer
10
273.9008977
20
124.3465602
40
3.2708796
50
79.3453667
51
90.3174619
0
ARC
8
bottom_labelLayer
10
273.8547965
20
124.5311027
40
3.0864138
50
89.480611
51
103.8805101
0
ARC
8
bottom_labelLayer
10
273.5954571
20
125.5186646
40
2.0655291
50
103.468519
51
142.3118967
0
ARC
8
bottom_labelLayer
10
274.0996351
20
125.1640909
40
2.6814262
50
142.9025851
51
162.3749443
0
ARC
8
bottom_labelLayer
10
275.6882758
20
124.6346804
40
4.3558556
50
162.0653062
51
173.1675044
0
ARC
8
bottom_labelLayer
10
278.1654265
20
124.3187326
40
6.8530279
50
173.0086135
51
180.2463718
0
LINE
8
bottom_labelLayer
10
292.3202746
20
120.0002021
11
291.0233996
21
120.0002021
0
LINE
8
bottom_labelLayer
10
291.0233996
20
120.0002021
11
291.0233996
21
125.5705146
0
LINE
8
bottom_labelLayer
10
286.8593371
20
124.7814521
11
286.8593371
21
120.0002021
0
LINE
8
bottom_labelLayer
10
286.8593371
20
120.0002021
11
285.5624621
21
120.0002021
0
LINE
8
bottom_labelLayer
10
285.5624621
20
120.0002021
11
285.5624621
21
125.5705146
0
LINE
8
bottom_labelLayer
10
281.4062121
20
124.4923896
11
281.4062121
21
120.0002021
0
LINE
8
bottom_labelLayer
10
281.4062121
20
120.0002021
11
280.1093371
21
120.0002021
0
LINE
8
bottom_labelLayer
10
280.1093371
20
120.0002021
11
280.1093371
21
128.5627021
0
LINE
8
bottom_labelLayer
10
280.1093371
20
128.5627021
11
281.1640246
21
128.5627021
0
LINE
8
bottom_labelLayer
10
281.1640246
20
128.5627021
11
281.3749621
21
127.3908271
0
LINE
8
bottom_labelLayer
10
281.3749621
20
127.3908271
11
281.4374621
21
127.3908271
0
LINE
8
bottom_labelLayer
10
286.5937121
20
127.2658271
11
286.6562121
21
127.2658271
0
LINE
8
bottom_labelLayer
10
292.3202746
20
125.5861396
11
292.3202746
21
120.0002021
0
ARC
8
bottom_labelLayer
10
287.1975588
20
125.5908908
40
3.8258951
50
359.6948496
51
8.1471423
0
ARC
8
bottom_labelLayer
10
288.6067594
20
125.7994359
40
2.4013723
50
7.9864611
51
20.7949391
0
ARC
8
bottom_labelLayer
10
289.3857219
20
126.0978265
40
1.5672196
50
20.7071327
51
40.0217263
0
ARC
8
bottom_labelLayer
10
289.5566133
20
126.2096386
40
1.3646627
50
41.0407914
51
73.1792889
0
ARC
8
bottom_labelLayer
10
289.3093398
20
125.4617603
40
2.152194
50
72.6395319
51
86.2567876
0
ARC
8
bottom_labelLayer
10
289.2301226
20
124.606946
40
3.010446
50
85.8144405
51
90.0684784
0
ARC
8
bottom_labelLayer
10
289.2010216
20
124.2804338
40
3.3370533
50
89.5621194
51
101.2961909
0
ARC
8
bottom_labelLayer
10
288.9496862
20
125.4836588
40
2.1079333
50
101.0032444
51
121.7840414
0
ARC
8
bottom_labelLayer
10
288.7586067
20
125.8247898
40
1.7174
50
122.359715
51
140.2883997
0
ARC
8
bottom_labelLayer
10
289.1023761
20
125.572726
40
2.1430555
50
140.9765145
51
161.169946
0
ARC
8
bottom_labelLayer
10
290.3974334
20
125.1118447
40
3.5176036
50
160.8731803
51
172.52727
0
ARC
8
bottom_labelLayer
10
292.5614427
20
124.8129774
40
5.7021222
50
172.3776497
51
180.182974
0
ARC
8
bottom_labelLayer
10
294.0002636
20
124.7815673
40
7.1409264
50
179.8940854
51
180.0009236
0
ARC
8
bottom_labelLayer
10
281.7366213
20
125.5908908
40
3.8258951
50
359.6948496
51
8.1471423
0
ARC
8
bottom_labelLayer
10
283.1458219
20
125.7994359
40
2.4013723
50
7.9864611
51
20.7949391
0
ARC
8
bottom_labelLayer
10
283.9247844
20
126.0978265
40
1.5672196
50
20.7071327
51
40.0217263
0
ARC
8
bottom_labelLayer
10
284.0992275
20
126.2120917
40
1.3603732
50
41.0610822
51
72.8993466
0
ARC
8
bottom_labelLayer
10
283.8472742
20
125.4620041
40
2.1514817
50
72.3600597
51
85.9562195
0
ARC
8
bottom_labelLayer
10
283.7619804
20
124.5804856
40
3.0369069
50
85.5238348
51
90.0793477
0
ARC
8
bottom_labelLayer
10
283.7328894
20
124.3964151
40
3.2210707
50
89.5573417
51
101.4832128
0
ARC
8
bottom_labelLayer
10
283.4856601
20
125.5547391
40
2.0367478
50
101.1546276
51
123.0655738
0
ARC
8
bottom_labelLayer
10
283.3176087
20
125.8474769
40
1.6998361
50
123.7020508
51
142.302205
0
ARC
8
bottom_labelLayer
10
283.7112617
20
125.5804177
40
2.1748175
50
143.0769747
51
161.3913693
0
ARC
8
bottom_labelLayer
10
285.2980589
20
125.0199989
40
3.8575677
50
161.0234625
51
171.4468919
0
ARC
8
bottom_labelLayer
10
287.9249156
20
124.6085103
40
6.5164289
50
171.3041883
51
178.3501783
0
ARC
8
bottom_labelLayer
10
290.4358088
20
124.4963739
40
9.0295976
50
178.0976382
51
180.0252812
0
ARC
8
bottom_labelLayer
10
283.6345433
20
126.098835
40
2.5488055
50
117.1209501
51
149.5423716
0
ARC
8
bottom_labelLayer
10
283.8946706
20
125.6364917
40
3.0789668
50
93.8343191
51
117.507209
0
ARC
8
bottom_labelLayer
10
283.9665181
20
125.0001448
40
3.7188081
50
89.9661966
51
94.2831787
0
ARC
8
bottom_labelLayer
10
284.0095663
20
124.4731779
40
4.2459708
50
77.5572067
51
90.5513009
0
ARC
8
bottom_labelLayer
10
284.4035473
20
126.1677547
40
2.5063846
50
52.702701
51
78.0053909
0
ARC
8
bottom_labelLayer
10
284.5439137
20
126.4289115
40
2.2140689
50
22.2097849
51
51.4970464
0
ARC
8
bottom_labelLayer
10
289.0055582
20
125.9194116
40
2.7078149
50
119.4041797
51
150.1828804
0
ARC
8
bottom_labelLayer
10
289.3060385
20
125.4624308
40
3.2536677
50
118.2585276
51
120.0629554
0
ARC
8
bottom_labelLayer
10
289.3050117
20
125.4293478
40
3.2823634
50
95.8635104
51
117.9693284
0
ARC
8
bottom_labelLayer
10
289.4161021
20
124.6260857
40
4.0928706
50
89.9197163
51
96.261765
0
ARC
8
bottom_labelLayer
10
289.4517643
20
124.21104
40
4.5080115
50
79.9361068
51
90.38037
0
ARC
8
bottom_labelLayer
10
289.752139
20
125.8378401
40
2.8537758
50
62.9723272
51
80.1665078
0
ARC
8
bottom_labelLayer
10
290.0661388
20
126.4820491
40
2.1372745
50
44.2290299
51
62.622885
0
ARC
8
bottom_labelLayer
10
289.9727484
20
126.4407956
40
2.233253
50
19.5612177
51
43.3161085
0
ARC
8
bottom_labelLayer
10
288.6163889
20
125.9313475
40
3.6819907
50
7.5042047
51
19.964518
0
ARC
8
bottom_labelLayer
10
286.3719793
20
125.6161689
40
5.948371
50
359.7107514
51
7.6907001
0
ENDSEC
0
EOF